<svg version="1.1" xmlns="http://www.w3.org/2000/svg" xmlns:xlink="http://www.w3.org/1999/xlink" width="1200" height="800"><defs/><g transform="scale(2,2)"><g id="background-ec67c427"><rect fill="none" stroke="none" x="0" y="0" width="600" height="400" class="dcg-svg-background"/></g><g id="background-images-ec67c427"/><g id="graphpaper-ec67c427"><g id="axis-ec67c427"><g><g><path fill="none" stroke="rgb(0,0,0)" class="dcg-svg-tickmark" paint-order="fill stroke markers" d="" stroke-opacity="0.9" stroke-miterlimit="2" stroke-width="1.5" stroke-dasharray=""/></g></g></g></g><g id="expressions-ec67c427"><g id="sketch-ec67c427"><title>Expression 1</title><path fill="#c74440" stroke="none" paint-order="stroke fill markers" d="" fill-opacity="0.4"/><g><path fill="none" stroke="#c74440" class="dcg-svg-curve" paint-order="fill stroke markers" d=" M 125.51503218157181 -5.5 L 128.0552212776373 5.202683745501872 M 129.67170524786079 12.013482492639428 L 132.21189434392628 22.716166238141298 M 133.88583515250724 29.51303318800999 L 136.52979310060581 40.190555670715725 M 138.21231179485034 46.98534270516483 L 139.453125 51.996319110576906 M 139.453125 51.996319110576906 L 140.91459638659543 57.64810298842646 M 142.66705488484166 64.42518858711301 L 145.42091823922857 75.07489452790615 M 147.20871630667406 81.84263503200748 L 150.07906315866143 92.46153840991266 M 151.905647519017 99.21902237767051 L 153.076171875 103.54939974271332 M 153.076171875 103.54939974271332 L 154.84915160858935 109.81769287534925 M 156.7543488043049 116.55343512438445 L 159.66796875 126.85441237229566 M 159.66796875 126.85441237229566 L 159.751744442071 127.13715533303522 M 161.74036274991062 133.84874212199392 L 164.86533437651573 144.3955213617862 M 166.88694147563209 151.09709597100948 L 170.15109632431674 161.60163275869357 M 172.2282857734797 168.28633798721984 L 172.412109375 168.8779097336989 M 172.412109375 168.8779097336989 L 175.63367181706826 178.74588074765435 M 177.80609905866575 185.400244720264 L 178.7109375 188.1718562199519 M 178.7109375 188.1718562199519 L 181.3384035048685 195.8174033326762 M 183.61342693700846 202.4373933918239 L 184.86328125 206.0742891751803 M 184.86328125 206.0742891751803 L 187.30022753106667 212.80078813487933 M 189.68460375571584 219.38218236553652 L 190.869140625 222.6517603947566 M 190.869140625 222.6517603947566 L 193.5567713261489 229.67771805701477 M 196.05773630600794 236.21569742142995 L 196.728515625 237.96923710749698 M 196.728515625 237.96923710749698 L 200.1498394088221 246.42591061883127 M 202.7919729968459 252.90795060021384 L 207.12571392392022 263.01827648897734 M 209.97963992183287 269.40967045170845 L 213.427734375 276.98760399451623 M 213.427734375 276.98760399451623 L 214.59288569772028 279.3949298644155 M 217.64248282449321 285.6957200818706 L 218.701171875 287.8830836369441 M 218.701171875 287.8830836369441 L 222.6307337381519 295.4989712623437 M 225.94709730655978 301.66282056562346 L 228.80859375 306.85272216796875 M 228.80859375 306.85272216796875 L 231.3889596509032 311.2210459316973 M 235.0190999930627 317.2052307752015 L 238.330078125 322.4224090576172 M 238.330078125 322.4224090576172 L 241.0515891883027 326.401637673612 M 245.11690364877242 332.09870911041946 L 247.265625 335.0041316105769 M 247.265625 335.0041316105769 L 251.66015625 340.47088623046875 M 251.66015625 340.47088623046875 L 251.90593378177235 340.7504877134285 M 256.5599726088626 345.97803754392214 L 260.009765625 349.5480757493239 M 260.009765625 349.5480757493239 L 264.111328125 353.3785013052133 M 264.111328125 353.3785013052133 L 264.43641725138747 353.64986476467976 M 269.8946636968643 358.0280658502419 L 272.021484375 359.5963404728816 M 272.021484375 359.5963404728816 L 275.830078125 362.0407984806941 M 275.830078125 362.0407984806941 L 279.19039590500495 363.8825111101199 M 285.61739565607 366.63713381936526 L 287.40234375 367.27752685546875 M 287.40234375 367.27752685546875 L 291.064453125 368.2480738713191 M 291.064453125 368.2480738713191 L 294.580078125 368.8692239614633 M 294.580078125 368.8692239614633 L 296.3177854048004 369.0290011332238 M 303.30571329124746 369.06767874687364 L 304.39453125 368.99308424729566 M 304.39453125 368.99308424729566 L 307.763671875 368.48892798790564 M 307.763671875 368.48892798790564 L 311.1328125 367.70535982572113 M 311.1328125 367.70535982572113 L 314.03321952149344 366.78503836697803 M 320.45987683998675 364.030565161467 L 322.412109375 363.048582810622 M 322.412109375 363.048582810622 L 326.220703125 360.7689197246845 M 326.220703125 360.7689197246845 L 329.8186048938043 358.2780646539738 M 335.2626257973059 353.88236496340284 L 337.79296875 351.6515878530649 M 337.79296875 351.6515878530649 L 341.748046875 347.77969947228064 M 341.748046875 347.77969947228064 L 343.1706356349792 346.2459709654281 M 347.8274757589751 341.02206090887256 L 350.09765625 338.34122877854566 M 350.09765625 338.34122877854566 L 354.345703125 332.88054833045373 M 354.345703125 332.88054833045373 L 354.6774968449482 332.418748898122 M 358.76084950450655 326.73316156144114 L 363.28125 319.9444110576923 M 363.28125 319.9444110576923 L 364.7781761275271 317.52629962091777 M 368.43818888395674 311.5598052969979 L 372.65625 304.25931490384613 M 372.65625 304.25931490384613 L 373.8786882209191 302.00030196554906 M 377.2101546133806 295.84389622226837 L 377.490234375 295.3263209416316 M 377.490234375 295.3263209416316 L 382.2052443890724 286.0436449764266 M 385.23557205953387 279.73374033827736 L 387.59765625 274.789546086238 M 387.59765625 274.789546086238 L 389.86399630734076 269.755656151183 M 392.737697931278 263.37272273647625 L 392.87109375 263.076430100661 M 392.87109375 263.076430100661 L 397.0468105869674 253.2519520858009 M 399.7153457106207 246.78092487524364 L 403.81763970288387 236.57449631276197 M 406.3099430721015 230.03322927845218 L 409.5703125 221.46888146033655 M 409.5703125 221.46888146033655 L 410.19391518416757 219.7419817195649 M 412.5714264306105 213.15810442172304 L 415.4296875 205.242919921875 M 415.4296875 205.242919921875 L 416.2682806214689 202.79819922941982 M 418.5395279551498 196.17691268153146 L 421.435546875 187.73425175593448 M 421.435546875 187.73425175593448 L 422.0790033195816 185.76211962410383 M 424.2502756455865 179.107378721084 L 427.587890625 168.8779097336989 M 427.587890625 168.8779097336989 L 427.659051882981 168.64890219975175 M 429.73624133214395 161.9641969712255 L 433.0003961808286 151.45966018354142 M 435.0268071905153 144.75954357305653 L 438.15177881712043 134.21276433326426 M 440.14039712496003 127.50117754430556 L 440.33203125 126.85441237229566 M 440.33203125 126.85441237229566 L 443.14364487767614 116.91914306295921 M 445.0497420559193 110.18365543791725 L 446.77734375 104.0789090670072 M 446.77734375 104.0789090670072 L 447.9938130747937 99.58513686778421 M 449.82288932034214 92.82832696310504 L 452.69715199191825 82.21048282718064 M 454.4801866172293 75.44147477569881 L 457.2400796343719 64.79332984177123 M 458.99637519073536 58.017237611090046 L 460.107421875 53.73062720665564 M 460.107421875 53.73062720665564 L 461.69166930541365 47.35269839875831 M 463.3791562875142 40.55914353512165 L 466.03092154510074 29.88355732083547 M 467.6903971354493 23.083186692320915 L 470.2398799849504 12.382713001866842 M 471.86227816190564 5.573320653396067 L 474.0234375 -3.497314453125 M 474.0234375 -3.497314453125 L 474.3970155594639 -5.130595933052808" stroke-linecap="round" stroke-linejoin="round" stroke-miterlimit="10" stroke-width="2.5" stroke-opacity="0.9" stroke-dasharray=""/></g></g><g id="sketch-ec67c427"><title>Expression 2</title><path fill="#2d70b3" stroke="none" paint-order="stroke fill markers" d="" fill-opacity="0.4"/><g><path fill="none" stroke="#2d70b3" class="dcg-svg-curve" paint-order="fill stroke markers" d=" M 0 386.1788619355388 L 0 386.1788619355388 L 2.783203125 384.08255117529 L 5.56640625 381.6266654713128 L 8.49609375 378.66144088992866 L 11.572265625 375.13939226806224 L 14.794921875 371.01506401889026 L 18.1640625 366.2461763200997 L 21.826171875 360.55762623018643 L 25.78125 353.8575527463718 L 30.029296875 346.0643620800311 L 34.5703125 337.1124975016508 L 39.55078125 326.6422043135386 L 45.1171875 314.25720553444216 L 51.708984375 298.8627843871016 L 60.64453125 277.19185865356235 L 78.80859375 232.9797032162108 L 85.546875 217.4446034089051 L 91.259765625 204.98097797264808 L 96.240234375 194.7804087321395 L 100.78125 186.11010175224828 L 105.029296875 178.608959880547 L 108.984375 172.20380720470683 L 112.646484375 166.80647840454372 L 116.162109375 162.1352066245136 L 119.384765625 158.31229227754844 L 122.4609375 155.08787848125226 L 125.390625 152.41407894660733 L 128.173828125 150.2413172518489 L 130.95703125 148.43334777055566 L 133.740234375 146.99577102788518 L 136.5234375 145.93304018789607 L 139.16015625 145.27501187798507 L 141.50390625 144.97651841635323 L 143.84765625 144.9482996429019 L 146.19140625 145.1904175504195 L 148.53515625 145.70234023895512 L 151.025390625 146.54061578417495 L 153.80859375 147.833859693454 L 156.591796875 149.49935336830904 L 159.375 151.531937629162 L 162.158203125 153.92531616437404 L 165.087890625 156.82627379885844 L 168.1640625 160.28276833552755 L 171.38671875 164.3408030947296 L 174.755859375 169.04328439776535 L 178.41796875 174.6633627166482 L 182.2265625 181.03871352268624 L 186.328125 188.4673782104446 L 190.72265625 197.0188563497474 L 195.556640625 207.05574109083494 L 200.9765625 218.9814261504565 L 207.275390625 233.55412756802684 L 215.478515625 253.31504861331052 L 237.890625 307.7242551465471 L 244.3359375 322.36961028117184 L 249.755859375 333.99632034893295 L 254.58984375 343.71647557107957 L 258.984375 351.9416193826274 L 263.0859375 359.034998932639 L 266.89453125 365.07447977265105 L 270.556640625 370.3511833974625 L 273.92578125 374.72167803162483 L 277.1484375 378.4491673159433 L 280.224609375 381.5795694191794 L 283.154296875 384.1615091528171 L 285.9375 386.24519502663986 L 288.720703125 387.96260676107755 L 291.50390625 389.3084243506079 L 294.287109375 390.2784788723892 L 296.77734375 390.8254255845458 L 299.12109375 391.06196619258066 L 301.46484375 391.02816539422423 L 303.80859375 390.72409744521076 L 306.15234375 390.15043034126523 L 308.7890625 389.18439175353683 L 311.572265625 387.7992425811772 L 314.35546875 386.04300531515105 L 317.138671875 383.9211202303595 L 320.068359375 381.2997774806799 L 322.998046875 378.2895760173172 L 326.07421875 374.72167803162483 L 329.296875 370.55101529113455 L 332.8125 365.5161632311465 L 336.474609375 359.75949754613555 L 340.4296875 352.9906764647342 L 344.677734375 345.12969540679086 L 349.21875 336.1128329927211 L 354.19921875 325.58074439250106 L 359.912109375 312.8035089648372 L 366.650390625 296.9953124240681 L 376.025390625 274.19080461410186 L 392.28515625 234.59393606829823 L 399.169921875 218.65089733671337 L 404.8828125 206.11832537568878 L 410.009765625 195.55371705753134 L 414.55078125 186.82873117713402 L 418.798828125 179.27106607918333 L 422.75390625 172.80898568140006 L 426.416015625 167.35556327306398 L 429.931640625 162.62766779913568 L 433.154296875 158.75070345764647 L 436.23046875 155.4729948639397 L 439.16015625 152.7470805219922 L 442.08984375 150.41675640851278 L 444.873046875 148.57666456332862 L 447.65625 147.10652150607456 L 450.439453125 146.01088128108745 L 453.076171875 145.32145157460536 L 455.419921875 144.99493464390287 L 457.763671875 144.938651943446 L 460.107421875 145.15272711863514 L 462.451171875 145.6366898755695 L 464.94140625 146.44541741815124 L 467.724609375 147.70591985828568 L 470.5078125 149.3390683816735 L 473.291015625 151.33980400392034 L 476.07421875 153.70192907052936 L 479.00390625 156.5707376939371 L 482.080078125 159.9944216466972 L 485.302734375 164.01925573275253 L 488.671875 168.6884571424685 L 492.333984375 174.27419306048625 L 496.142578125 180.61604386499866 L 500.244140625 188.01137818291653 L 504.638671875 196.5305538874026 L 509.47265625 206.5362685717296 L 514.892578125 218.4327871699924 L 521.19140625 232.9797032162108 L 529.248046875 252.36301594765305 L 552.5390625 308.86202252928746 L 558.837890625 323.1251110489085 L 564.2578125 334.7067954625612 L 569.091796875 344.3797380520721 L 573.486328125 352.5565730350981 L 577.587890625 359.6005731879394 L 581.396484375 365.5907883912869 L 585.05859375 370.8172938751821 L 588.427734375 375.13939226806224 L 591.650390625 378.8188123909976 L 594.7265625 381.9018954315665 L 597.65625 384.43763277080876 L 600 386.1788619355388" stroke-linecap="round" stroke-linejoin="round" stroke-miterlimit="10" stroke-width="2.5" stroke-opacity="0.9" stroke-dasharray=""/></g></g></g><g id="labels-ec67c427"/></g></svg>