<svg version="1.1" xmlns="http://www.w3.org/2000/svg" xmlns:xlink="http://www.w3.org/1999/xlink" width="1200" height="800"><defs/><g transform="scale(2,2)"><g id="background-3372b2a7"><rect fill="none" stroke="none" x="0" y="0" width="600" height="400" class="dcg-svg-background"/></g><g id="background-images-3372b2a7"/><g id="graphpaper-3372b2a7"><g id="axis-3372b2a7"><g><g><path fill="none" stroke="rgb(0,0,0)" class="dcg-svg-tickmark" paint-order="fill stroke markers" d="" stroke-opacity="0.9" stroke-miterlimit="2" stroke-width="1.5" stroke-dasharray=""/></g></g></g></g><g id="expressions-3372b2a7"><g id="sketch-3372b2a7"><title>Expression 1</title><path fill="#c74440" stroke="none" paint-order="stroke fill markers" d="" fill-opacity="0.4"/><g><path fill="none" stroke="#c74440" class="dcg-svg-curve" paint-order="fill stroke markers" d=" M 125.51503218157181 -5.5 L 128.0552212776373 5.202683745501872 M 129.67170524786079 12.013482492639428 L 132.21189434392628 22.716166238141298 M 133.88583515250724 29.51303318800999 L 136.52979310060581 40.190555670715725 M 138.21231179485034 46.98534270516483 L 139.453125 51.996319110576906 M 139.453125 51.996319110576906 L 140.91459638659543 57.64810298842646 M 142.66705488484166 64.42518858711301 L 145.42091823922857 75.07489452790615 M 147.20871630667406 81.84263503200748 L 150.07906315866143 92.46153840991266 M 151.905647519017 99.21902237767051 L 153.076171875 103.54939974271332 M 153.076171875 103.54939974271332 L 154.84915160858935 109.81769287534925 M 156.7543488043049 116.55343512438445 L 159.66796875 126.85441237229566 M 159.66796875 126.85441237229566 L 159.751744442071 127.13715533303522 M 161.74036274991062 133.84874212199392 L 164.86533437651573 144.3955213617862 M 166.88694147563209 151.09709597100948 L 170.15109632431674 161.60163275869357 M 172.2282857734797 168.28633798721984 L 172.412109375 168.8779097336989 M 172.412109375 168.8779097336989 L 175.63367181706826 178.74588074765435 M 177.80609905866575 185.400244720264 L 178.7109375 188.1718562199519 M 178.7109375 188.1718562199519 L 181.3384035048685 195.8174033326762 M 183.61342693700846 202.4373933918239 L 184.86328125 206.0742891751803 M 184.86328125 206.0742891751803 L 187.30022753106667 212.80078813487933 M 189.68460375571584 219.38218236553652 L 190.869140625 222.6517603947566 M 190.869140625 222.6517603947566 L 193.5567713261489 229.67771805701477 M 196.05773630600794 236.21569742142995 L 196.728515625 237.96923710749698 M 196.728515625 237.96923710749698 L 200.1498394088221 246.42591061883127 M 202.7919729968459 252.90795060021384 L 207.12571392392022 263.01827648897734 M 209.97963992183287 269.40967045170845 L 213.427734375 276.98760399451623 M 213.427734375 276.98760399451623 L 214.59288569772028 279.3949298644155 M 217.64248282449321 285.6957200818706 L 218.701171875 287.8830836369441 M 218.701171875 287.8830836369441 L 222.6307337381519 295.4989712623437 M 225.94709730655978 301.66282056562346 L 228.80859375 306.85272216796875 M 228.80859375 306.85272216796875 L 231.3889596509032 311.2210459316973 M 235.0190999930627 317.2052307752015 L 238.330078125 322.4224090576172 M 238.330078125 322.4224090576172 L 241.0515891883027 326.401637673612 M 245.11690364877242 332.09870911041946 L 247.265625 335.0041316105769 M 247.265625 335.0041316105769 L 251.66015625 340.47088623046875 M 251.66015625 340.47088623046875 L 251.90593378177235 340.7504877134285 M 256.5599726088626 345.97803754392214 L 260.009765625 349.5480757493239 M 260.009765625 349.5480757493239 L 264.111328125 353.3785013052133 M 264.111328125 353.3785013052133 L 264.43641725138747 353.64986476467976 M 269.8946636968643 358.0280658502419 L 272.021484375 359.5963404728816 M 272.021484375 359.5963404728816 L 275.830078125 362.0407984806941 M 275.830078125 362.0407984806941 L 279.19039590500495 363.8825111101199 M 285.61739565607 366.63713381936526 L 287.40234375 367.27752685546875 M 287.40234375 367.27752685546875 L 291.064453125 368.2480738713191 M 291.064453125 368.2480738713191 L 294.580078125 368.8692239614633 M 294.580078125 368.8692239614633 L 296.3177854048004 369.0290011332238 M 303.30571329124746 369.06767874687364 L 304.39453125 368.99308424729566 M 304.39453125 368.99308424729566 L 307.763671875 368.48892798790564 M 307.763671875 368.48892798790564 L 311.1328125 367.70535982572113 M 311.1328125 367.70535982572113 L 314.03321952149344 366.78503836697803 M 320.45987683998675 364.030565161467 L 322.412109375 363.048582810622 M 322.412109375 363.048582810622 L 326.220703125 360.7689197246845 M 326.220703125 360.7689197246845 L 329.8186048938043 358.2780646539738 M 335.2626257973059 353.88236496340284 L 337.79296875 351.6515878530649 M 337.79296875 351.6515878530649 L 341.748046875 347.77969947228064 M 341.748046875 347.77969947228064 L 343.1706356349792 346.2459709654281 M 347.8274757589751 341.02206090887256 L 350.09765625 338.34122877854566 M 350.09765625 338.34122877854566 L 354.345703125 332.88054833045373 M 354.345703125 332.88054833045373 L 354.6774968449482 332.418748898122 M 358.76084950450655 326.73316156144114 L 363.28125 319.9444110576923 M 363.28125 319.9444110576923 L 364.7781761275271 317.52629962091777 M 368.43818888395674 311.5598052969979 L 372.65625 304.25931490384613 M 372.65625 304.25931490384613 L 373.8786882209191 302.00030196554906 M 377.2101546133806 295.84389622226837 L 377.490234375 295.3263209416316 M 377.490234375 295.3263209416316 L 382.2052443890724 286.0436449764266 M 385.23557205953387 279.73374033827736 L 387.59765625 274.789546086238 M 387.59765625 274.789546086238 L 389.86399630734076 269.755656151183 M 392.737697931278 263.37272273647625 L 392.87109375 263.076430100661 M 392.87109375 263.076430100661 L 397.0468105869674 253.2519520858009 M 399.7153457106207 246.78092487524364 L 403.81763970288387 236.57449631276197 M 406.3099430721015 230.03322927845218 L 409.5703125 221.46888146033655 M 409.5703125 221.46888146033655 L 410.19391518416757 219.7419817195649 M 412.5714264306105 213.15810442172304 L 415.4296875 205.242919921875 M 415.4296875 205.242919921875 L 416.2682806214689 202.79819922941982 M 418.5395279551498 196.17691268153146 L 421.435546875 187.73425175593448 M 421.435546875 187.73425175593448 L 422.0790033195816 185.76211962410383 M 424.2502756455865 179.107378721084 L 427.587890625 168.8779097336989 M 427.587890625 168.8779097336989 L 427.659051882981 168.64890219975175 M 429.73624133214395 161.9641969712255 L 433.0003961808286 151.45966018354142 M 435.0268071905153 144.75954357305653 L 438.15177881712043 134.21276433326426 M 440.14039712496003 127.50117754430556 L 440.33203125 126.85441237229566 M 440.33203125 126.85441237229566 L 443.14364487767614 116.91914306295921 M 445.0497420559193 110.18365543791725 L 446.77734375 104.0789090670072 M 446.77734375 104.0789090670072 L 447.9938130747937 99.58513686778421 M 449.82288932034214 92.82832696310504 L 452.69715199191825 82.21048282718064 M 454.4801866172293 75.44147477569881 L 457.2400796343719 64.79332984177123 M 458.99637519073536 58.017237611090046 L 460.107421875 53.73062720665564 M 460.107421875 53.73062720665564 L 461.69166930541365 47.35269839875831 M 463.3791562875142 40.55914353512165 L 466.03092154510074 29.88355732083547 M 467.6903971354493 23.083186692320915 L 470.2398799849504 12.382713001866842 M 471.86227816190564 5.573320653396067 L 474.0234375 -3.497314453125 M 474.0234375 -3.497314453125 L 474.3970155594639 -5.130595933052808" stroke-linecap="round" stroke-linejoin="round" stroke-miterlimit="10" stroke-width="2.5" stroke-opacity="0.9" stroke-dasharray=""/></g></g><g id="sketch-3372b2a7"><title>Expression 3</title><path fill="#388c46" stroke="none" paint-order="stroke fill markers" d="" fill-opacity="0.4"/><g><path fill="none" stroke="#388c46" class="dcg-svg-curve" paint-order="fill stroke markers" d=" M 0 360.21412474376984 L 0 360.21412474376984 L 5.859375 359.92686860783 L 10.400390625 359.4515550746498 L 14.35546875 358.7704807903368 L 18.017578125 357.84968306917193 L 21.38671875 356.70072129623236 L 24.755859375 355.211272004789 L 27.978515625 353.42242184016334 L 31.0546875 351.3436734195096 L 33.984375 348.99482011628265 L 36.9140625 346.25800317861996 L 39.84375 343.1086764618602 L 42.7734375 339.52568387735874 L 45.703125 335.4917704805257 L 48.779296875 330.75681905786917 L 51.85546875 325.5013198562457 L 55.078125 319.43406404261634 L 58.447265625 312.4815484956666 L 62.109375 304.2350681489295 L 65.91796875 294.9313076279528 L 70.01953125 284.1427182096526 L 74.560546875 271.3717071838122 L 79.833984375 255.64322837344486 L 86.71875 234.1107973492108 L 102.392578125 184.73977731845733 L 107.373046875 170.17844496612673 L 111.62109375 158.61956901097787 L 115.283203125 149.44869141763792 L 118.65234375 141.76614861640394 L 121.728515625 135.45638623301858 L 124.51171875 130.3771837823303 L 127.1484375 126.15322615539702 L 129.4921875 122.90269442601783 L 131.689453125 120.30265114921247 L 133.740234375 118.27779245427428 L 135.791015625 116.64961377796806 L 137.6953125 115.49890846442645 L 139.599609375 114.70029396412588 L 141.50390625 114.2566618081052 L 143.115234375 114.15977302097133 L 144.7265625 114.3184674801987 L 146.484375 114.78257868468398 L 148.388671875 115.62635615985852 L 150.29296875 116.82176326283383 L 152.197265625 118.3644777949259 L 154.248046875 120.4078574355022 L 156.4453125 123.02725562423853 L 158.7890625 126.29777525852751 L 161.279296875 130.29214175688327 L 163.916015625 135.07820704022703 L 166.845703125 141.02873435508866 L 169.921875 147.94104552807087 L 173.291015625 156.21915612911783 L 177.099609375 166.3586178422666 L 181.494140625 178.91566189373572 L 186.767578125 194.89812980302568 L 194.677734375 219.9236976547336 L 205.810546875 255.04272616943177 L 211.5234375 272.0756291892767 L 216.357421875 285.595718537695 L 220.60546875 296.6514963211389 L 224.560546875 306.1637557432217 L 228.22265625 314.2498315443593 L 231.73828125 321.3314880852219 L 235.107421875 327.47911039904625 L 238.330078125 332.7722361263586 L 241.40625 337.2948586859958 L 244.482421875 341.31170626988865 L 247.412109375 344.68281893819903 L 250.341796875 347.6300282117046 L 253.271484375 350.17619406554405 L 256.201171875 352.3473052931153 L 259.27734375 354.25458936516503 L 262.5 355.8815427732655 L 266.015625 357.27257816441823 L 269.677734375 358.35493079420144 L 273.486328125 359.15114316556446 L 277.587890625 359.71117095764794 L 282.275390625 360.07384238350943 L 288.427734375 360.2679974045661 L 300.146484375 360.31174973128344 L 315.087890625 360.18611065339417 L 320.80078125 359.8640571031767 L 325.1953125 359.36099800539654 L 329.00390625 358.6650745916042 L 332.51953125 357.7469306641451 L 335.888671875 356.56561475522335 L 339.2578125 355.03874818213814 L 342.48046875 353.2094720294381 L 345.41015625 351.1979521526883 L 348.33984375 348.82394375710203 L 351.26953125 346.0602328240617 L 354.19921875 342.88248345285393 L 357.12890625 339.2697853256259 L 360.05859375 335.2051619187517 L 363.134765625 330.43722096223564 L 366.2109375 325.1483505363094 L 369.43359375 319.04617392831307 L 372.802734375 312.0577247306409 L 376.46484375 303.77352610555306 L 380.2734375 294.4328175243406 L 384.375 283.6080014702641 L 388.916015625 270.8024081527217 L 394.189453125 255.04272616943177 L 401.07421875 233.48687337069794 L 416.455078125 185.031479665023 L 421.58203125 170.0381220009971 L 425.830078125 158.48982359730462 L 429.4921875 149.32982855906724 L 432.861328125 141.6586389244875 L 435.9375 135.36027094542698 L 438.720703125 130.29214175688327 L 441.357421875 126.07927048301855 L 443.701171875 122.83902043416225 L 445.8984375 120.24893129733914 L 447.94921875 118.23359618823827 L 450 116.61512594619694 L 451.904296875 115.4735658991687 L 453.80859375 114.68418837924986 L 455.56640625 114.27061335430307 L 457.177734375 114.15837737229094 L 458.7890625 114.30172825920096 L 460.546875 114.74915193758437 L 462.451171875 115.5749692911034 L 464.35546875 116.75260221353392 L 466.259765625 118.27779245427428 L 468.310546875 120.30265114921247 L 470.5078125 122.90269442601783 L 472.8515625 126.15322615539702 L 475.341796875 130.12721401398227 L 477.978515625 134.892795400363 L 480.76171875 140.5104264517119 L 483.837890625 147.3710697666052 L 487.20703125 155.598505728633 L 491.015625 165.688680708677 L 495.41015625 178.2000270255449 L 500.68359375 194.14409604498329 L 508.30078125 218.20960628672321 L 520.01953125 255.19498742859201 L 525.732421875 272.2192482918432 L 530.56640625 285.72981712147697 L 534.814453125 296.7758955985372 L 538.76953125 306.278272303297 L 542.431640625 314.35468088816145 L 545.947265625 321.42677349256064 L 549.31640625 327.5651268104613 L 552.5390625 332.8494242165452 L 555.615234375 337.363763382354 L 558.69140625 341.37256395990175 L 561.62109375 344.73631145052843 L 564.55078125 347.6765144165399 L 567.48046875 350.216090468906 L 570.41015625 352.38107670540046 L 573.486328125 354.28247172665635 L 576.708984375 355.90388577876826 L 580.224609375 357.28963879811346 L 583.88671875 358.36734064122675 L 587.6953125 359.1596210396109 L 591.796875 359.7163938985593 L 596.630859375 360.08409769698835 L 600 360.21412474376984" stroke-linecap="round" stroke-linejoin="round" stroke-miterlimit="10" stroke-width="2.5" stroke-opacity="0.9" stroke-dasharray=""/></g></g></g><g id="labels-3372b2a7"/></g></svg>