<svg version="1.1" xmlns="http://www.w3.org/2000/svg" xmlns:xlink="http://www.w3.org/1999/xlink" width="1200" height="800"><defs/><g transform="scale(2,2)"><g id="background-2198efa3"><rect fill="none" stroke="none" x="0" y="0" width="600" height="400" class="dcg-svg-background"/></g><g id="background-images-2198efa3"/><g id="graphpaper-2198efa3"><g id="axis-2198efa3"><g><g><path fill="none" stroke="rgb(0,0,0)" class="dcg-svg-tickmark" paint-order="fill stroke markers" d="" stroke-opacity="0.9" stroke-miterlimit="2" stroke-width="1.5" stroke-dasharray=""/></g></g></g></g><g id="expressions-2198efa3"><g id="sketch-2198efa3"><title>Expression 1</title><path fill="#c74440" stroke="none" paint-order="stroke fill markers" d="" fill-opacity="0.4"/><g><path fill="none" stroke="#c74440" class="dcg-svg-curve" paint-order="fill stroke markers" d=" M 125.51503218157181 -5.5 L 128.0552212776373 5.202683745501872 M 129.67170524786079 12.013482492639428 L 132.21189434392628 22.716166238141298 M 133.88583515250724 29.51303318800999 L 136.52979310060581 40.190555670715725 M 138.21231179485034 46.98534270516483 L 139.453125 51.996319110576906 M 139.453125 51.996319110576906 L 140.91459638659543 57.64810298842646 M 142.66705488484166 64.42518858711301 L 145.42091823922857 75.07489452790615 M 147.20871630667406 81.84263503200748 L 150.07906315866143 92.46153840991266 M 151.905647519017 99.21902237767051 L 153.076171875 103.54939974271332 M 153.076171875 103.54939974271332 L 154.84915160858935 109.81769287534925 M 156.7543488043049 116.55343512438445 L 159.66796875 126.85441237229566 M 159.66796875 126.85441237229566 L 159.751744442071 127.13715533303522 M 161.74036274991062 133.84874212199392 L 164.86533437651573 144.3955213617862 M 166.88694147563209 151.09709597100948 L 170.15109632431674 161.60163275869357 M 172.2282857734797 168.28633798721984 L 172.412109375 168.8779097336989 M 172.412109375 168.8779097336989 L 175.63367181706826 178.74588074765435 M 177.80609905866575 185.400244720264 L 178.7109375 188.1718562199519 M 178.7109375 188.1718562199519 L 181.3384035048685 195.8174033326762 M 183.61342693700846 202.4373933918239 L 184.86328125 206.0742891751803 M 184.86328125 206.0742891751803 L 187.30022753106667 212.80078813487933 M 189.68460375571584 219.38218236553652 L 190.869140625 222.6517603947566 M 190.869140625 222.6517603947566 L 193.5567713261489 229.67771805701477 M 196.05773630600794 236.21569742142995 L 196.728515625 237.96923710749698 M 196.728515625 237.96923710749698 L 200.1498394088221 246.42591061883127 M 202.7919729968459 252.90795060021384 L 207.12571392392022 263.01827648897734 M 209.97963992183287 269.40967045170845 L 213.427734375 276.98760399451623 M 213.427734375 276.98760399451623 L 214.59288569772028 279.3949298644155 M 217.64248282449321 285.6957200818706 L 218.701171875 287.8830836369441 M 218.701171875 287.8830836369441 L 222.6307337381519 295.4989712623437 M 225.94709730655978 301.66282056562346 L 228.80859375 306.85272216796875 M 228.80859375 306.85272216796875 L 231.3889596509032 311.2210459316973 M 235.0190999930627 317.2052307752015 L 238.330078125 322.4224090576172 M 238.330078125 322.4224090576172 L 241.0515891883027 326.401637673612 M 245.11690364877242 332.09870911041946 L 247.265625 335.0041316105769 M 247.265625 335.0041316105769 L 251.66015625 340.47088623046875 M 251.66015625 340.47088623046875 L 251.90593378177235 340.7504877134285 M 256.5599726088626 345.97803754392214 L 260.009765625 349.5480757493239 M 260.009765625 349.5480757493239 L 264.111328125 353.3785013052133 M 264.111328125 353.3785013052133 L 264.43641725138747 353.64986476467976 M 269.8946636968643 358.0280658502419 L 272.021484375 359.5963404728816 M 272.021484375 359.5963404728816 L 275.830078125 362.0407984806941 M 275.830078125 362.0407984806941 L 279.19039590500495 363.8825111101199 M 285.61739565607 366.63713381936526 L 287.40234375 367.27752685546875 M 287.40234375 367.27752685546875 L 291.064453125 368.2480738713191 M 291.064453125 368.2480738713191 L 294.580078125 368.8692239614633 M 294.580078125 368.8692239614633 L 296.3177854048004 369.0290011332238 M 303.30571329124746 369.06767874687364 L 304.39453125 368.99308424729566 M 304.39453125 368.99308424729566 L 307.763671875 368.48892798790564 M 307.763671875 368.48892798790564 L 311.1328125 367.70535982572113 M 311.1328125 367.70535982572113 L 314.03321952149344 366.78503836697803 M 320.45987683998675 364.030565161467 L 322.412109375 363.048582810622 M 322.412109375 363.048582810622 L 326.220703125 360.7689197246845 M 326.220703125 360.7689197246845 L 329.8186048938043 358.2780646539738 M 335.2626257973059 353.88236496340284 L 337.79296875 351.6515878530649 M 337.79296875 351.6515878530649 L 341.748046875 347.77969947228064 M 341.748046875 347.77969947228064 L 343.1706356349792 346.2459709654281 M 347.8274757589751 341.02206090887256 L 350.09765625 338.34122877854566 M 350.09765625 338.34122877854566 L 354.345703125 332.88054833045373 M 354.345703125 332.88054833045373 L 354.6774968449482 332.418748898122 M 358.76084950450655 326.73316156144114 L 363.28125 319.9444110576923 M 363.28125 319.9444110576923 L 364.7781761275271 317.52629962091777 M 368.43818888395674 311.5598052969979 L 372.65625 304.25931490384613 M 372.65625 304.25931490384613 L 373.8786882209191 302.00030196554906 M 377.2101546133806 295.84389622226837 L 377.490234375 295.3263209416316 M 377.490234375 295.3263209416316 L 382.2052443890724 286.0436449764266 M 385.23557205953387 279.73374033827736 L 387.59765625 274.789546086238 M 387.59765625 274.789546086238 L 389.86399630734076 269.755656151183 M 392.737697931278 263.37272273647625 L 392.87109375 263.076430100661 M 392.87109375 263.076430100661 L 397.0468105869674 253.2519520858009 M 399.7153457106207 246.78092487524364 L 403.81763970288387 236.57449631276197 M 406.3099430721015 230.03322927845218 L 409.5703125 221.46888146033655 M 409.5703125 221.46888146033655 L 410.19391518416757 219.7419817195649 M 412.5714264306105 213.15810442172304 L 415.4296875 205.242919921875 M 415.4296875 205.242919921875 L 416.2682806214689 202.79819922941982 M 418.5395279551498 196.17691268153146 L 421.435546875 187.73425175593448 M 421.435546875 187.73425175593448 L 422.0790033195816 185.76211962410383 M 424.2502756455865 179.107378721084 L 427.587890625 168.8779097336989 M 427.587890625 168.8779097336989 L 427.659051882981 168.64890219975175 M 429.73624133214395 161.9641969712255 L 433.0003961808286 151.45966018354142 M 435.0268071905153 144.75954357305653 L 438.15177881712043 134.21276433326426 M 440.14039712496003 127.50117754430556 L 440.33203125 126.85441237229566 M 440.33203125 126.85441237229566 L 443.14364487767614 116.91914306295921 M 445.0497420559193 110.18365543791725 L 446.77734375 104.0789090670072 M 446.77734375 104.0789090670072 L 447.9938130747937 99.58513686778421 M 449.82288932034214 92.82832696310504 L 452.69715199191825 82.21048282718064 M 454.4801866172293 75.44147477569881 L 457.2400796343719 64.79332984177123 M 458.99637519073536 58.017237611090046 L 460.107421875 53.73062720665564 M 460.107421875 53.73062720665564 L 461.69166930541365 47.35269839875831 M 463.3791562875142 40.55914353512165 L 466.03092154510074 29.88355732083547 M 467.6903971354493 23.083186692320915 L 470.2398799849504 12.382713001866842 M 471.86227816190564 5.573320653396067 L 474.0234375 -3.497314453125 M 474.0234375 -3.497314453125 L 474.3970155594639 -5.130595933052808" stroke-linecap="round" stroke-linejoin="round" stroke-miterlimit="10" stroke-width="2.5" stroke-opacity="0.9" stroke-dasharray=""/></g></g><g id="sketch-2198efa3"><title>Expression 4</title><path fill="#6042a6" stroke="none" paint-order="stroke fill markers" d="" fill-opacity="0.4"/><g><path fill="none" stroke="#6042a6" class="dcg-svg-curve" paint-order="fill stroke markers" d=" M 0 369.24409682232135 L 0 369.24409682232135 L 3.076171875 367.0906183616195 L 6.4453125 364.37028717941587 L 10.25390625 360.91843272230483 L 14.94140625 356.259366893166 L 21.533203125 349.2551662904939 L 51.708984375 316.33939298663705 L 55.95703125 311.05893114937555 L 59.619140625 306.06573348407665 L 63.134765625 300.78009350502657 L 66.50390625 295.1747542342968 L 69.7265625 289.2497450255414 L 72.94921875 282.7196286845889 L 76.171875 275.54514089449737 L 79.541015625 267.33159333057097 L 83.056640625 257.98154493799666 L 86.865234375 246.98548042385985 L 90.966796875 234.2221693996296 L 95.654296875 218.66065657889138 L 102.099609375 196.15032842155244 L 112.5 159.78834417873338 L 116.89453125 145.55213897672465 L 120.41015625 135.08733152609034 L 123.486328125 126.79098715545331 L 126.26953125 120.09605383757622 L 128.759765625 114.8371688301458 L 130.95703125 110.81947243540588 L 133.0078125 107.62882530158657 L 134.912109375 105.1716415554659 L 136.669921875 103.35024722803746 L 138.28125 102.06665336594938 L 139.892578125 101.15871047249698 L 141.50390625 100.63080578479281 L 142.92036732051034 100.48268990335697 L 144.287109375 100.62059324968811 L 145.751953125 101.07404145137639 L 147.36328125 101.93590717843767 L 148.974609375 103.17405512512363 L 150.5859375 104.78251452176198 L 152.34375 106.95040393156398 L 154.248046875 109.77146800084768 L 156.298828125 113.33800423121579 L 158.49609375 117.73700958561022 L 160.986328125 123.39744759137983 L 163.76953125 130.49804078510584 L 166.845703125 139.18444072719745 L 170.361328125 150.01424957519382 L 174.609375 164.07971951980437 L 180.76171875 185.57413357782997 L 191.30859375 222.4660867980193 L 196.142578125 238.26427646927053 L 200.390625 251.17273229106797 L 204.19921875 261.83989797804105 L 207.71484375 270.8709601490892 L 211.083984375 278.7767875982603 L 214.453125 285.9623489465764 L 217.822265625 292.4624274462653 L 221.19140625 298.33043296925075 L 224.560546875 303.63451410773996 L 228.076171875 308.65308819753966 L 231.884765625 313.6052348388133 L 236.279296875 318.85087314685006 L 241.9921875 325.2010228345864 L 270.263671875 355.60160873639836 L 275.537109375 360.8711321242824 L 279.638671875 364.5780619493025 L 283.154296875 367.38195298117824 L 286.376953125 369.5836678298623 L 289.306640625 371.2355457411119 L 292.236328125 372.52100916677574 L 295.01953125 373.37939522113663 L 297.509765625 373.8345059776867 L 299.853515625 373.9864352210451 L 302.197265625 373.86823558840945 L 304.541015625 373.4814609814874 L 307.03125 372.78196215522803 L 309.814453125 371.66096017284315 L 312.744140625 370.11590561453187 L 315.8203125 368.12343796643586 L 319.04296875 365.67442892646216 L 322.705078125 362.51026256329425 L 326.953125 358.44003026926464 L 332.373046875 352.8258347920907 L 343.359375 340.9132220881365 L 366.2109375 315.93001867525413 L 370.458984375 310.61096902677536 L 374.12109375 305.5733298421295 L 377.490234375 300.46894561276383 L 380.712890625 295.0876868533886 L 383.935546875 289.1537148669465 L 387.158203125 282.61391530412897 L 390.380859375 275.4292644334844 L 393.75 267.2048854203291 L 397.265625 257.84369538857766 L 401.07421875 246.83625238405074 L 405.17578125 234.06214287413985 L 409.86328125 218.4910350858801 L 416.30859375 195.97402168156344 L 426.708984375 159.62156880283078 L 431.103515625 145.39775938329325 L 434.619140625 134.94642206833078 L 437.6953125 126.6643113863563 L 440.478515625 119.98406885029146 L 442.96875 114.73964354403319 L 445.166015625 110.73561736380623 L 447.216796875 107.55839723618368 L 449.12109375 105.114170632752 L 450.87890625 103.30508028830081 L 452.490234375 102.03299411377242 L 454.1015625 101.13672140006287 L 455.712890625 100.62059324968811 L 457.177734375 100.48340059344343 L 458.49609375 100.63080578479281 L 459.9609375 101.09496347365877 L 461.572265625 101.96851138348649 L 463.18359375 103.21818408124875 L 464.794921875 104.83795571748124 L 466.552734375 107.01788052050085 L 468.45703125 109.85154818615723 L 470.5078125 113.43106191123661 L 472.705078125 117.84318255875013 L 475.1953125 123.51736886352415 L 477.978515625 130.631768407631 L 481.0546875 139.33133653924563 L 484.5703125 150.17331848721543 L 488.818359375 164.24923022701014 L 494.970703125 185.75047679409997 L 505.517578125 222.6336363701454 L 510.3515625 238.42103914551979 L 514.599609375 251.3177042765071 L 518.408203125 261.9731522092849 L 521.923828125 270.9929545804489 L 525.29296875 278.88800213294047 L 528.662109375 286.06314463803733 L 532.03125 292.55346603088793 L 535.400390625 298.41262310156264 L 538.76953125 303.70895069700225 L 542.28515625 308.72073192336495 L 546.240234375 313.8489222667414 L 550.78125 319.2438614697246 L 556.640625 325.7301109881918 L 586.083984375 357.3091004675982 L 590.91796875 362.0177129232383 L 594.873046875 365.47601366659046 L 598.2421875 368.05504492582884 L 600 369.24409682232135" stroke-linecap="round" stroke-linejoin="round" stroke-miterlimit="10" stroke-width="2.5" stroke-opacity="0.9" stroke-dasharray=""/></g></g></g><g id="labels-2198efa3"/></g></svg>