<svg version="1.1" xmlns="http://www.w3.org/2000/svg" xmlns:xlink="http://www.w3.org/1999/xlink" width="1200" height="800"><defs/><g transform="scale(2,2)"><g id="background-0b43df02"><rect fill="none" stroke="none" x="0" y="0" width="600" height="400" class="dcg-svg-background"/></g><g id="background-images-0b43df02"/><g id="graphpaper-0b43df02"><g id="axis-0b43df02"><g><g><path fill="none" stroke="rgb(0,0,0)" class="dcg-svg-tickmark" paint-order="fill stroke markers" d="" stroke-opacity="0.9" stroke-miterlimit="2" stroke-width="1.5" stroke-dasharray=""/></g></g></g></g><g id="expressions-0b43df02"><g id="sketch-0b43df02"><title>Expression 1</title><path fill="#c74440" stroke="none" paint-order="stroke fill markers" d="" fill-opacity="0.4"/><g><path fill="none" stroke="#c74440" class="dcg-svg-curve" paint-order="fill stroke markers" d=" M 125.51503218157181 -5.5 L 128.0552212776373 5.202683745501872 M 129.67170524786079 12.013482492639428 L 132.21189434392628 22.716166238141298 M 133.88583515250724 29.51303318800999 L 136.52979310060581 40.190555670715725 M 138.21231179485034 46.98534270516483 L 139.453125 51.996319110576906 M 139.453125 51.996319110576906 L 140.91459638659543 57.64810298842646 M 142.66705488484166 64.42518858711301 L 145.42091823922857 75.07489452790615 M 147.20871630667406 81.84263503200748 L 150.07906315866143 92.46153840991266 M 151.905647519017 99.21902237767051 L 153.076171875 103.54939974271332 M 153.076171875 103.54939974271332 L 154.84915160858935 109.81769287534925 M 156.7543488043049 116.55343512438445 L 159.66796875 126.85441237229566 M 159.66796875 126.85441237229566 L 159.751744442071 127.13715533303522 M 161.74036274991062 133.84874212199392 L 164.86533437651573 144.3955213617862 M 166.88694147563209 151.09709597100948 L 170.15109632431674 161.60163275869357 M 172.2282857734797 168.28633798721984 L 172.412109375 168.8779097336989 M 172.412109375 168.8779097336989 L 175.63367181706826 178.74588074765435 M 177.80609905866575 185.400244720264 L 178.7109375 188.1718562199519 M 178.7109375 188.1718562199519 L 181.3384035048685 195.8174033326762 M 183.61342693700846 202.4373933918239 L 184.86328125 206.0742891751803 M 184.86328125 206.0742891751803 L 187.30022753106667 212.80078813487933 M 189.68460375571584 219.38218236553652 L 190.869140625 222.6517603947566 M 190.869140625 222.6517603947566 L 193.5567713261489 229.67771805701477 M 196.05773630600794 236.21569742142995 L 196.728515625 237.96923710749698 M 196.728515625 237.96923710749698 L 200.1498394088221 246.42591061883127 M 202.7919729968459 252.90795060021384 L 207.12571392392022 263.01827648897734 M 209.97963992183287 269.40967045170845 L 213.427734375 276.98760399451623 M 213.427734375 276.98760399451623 L 214.59288569772028 279.3949298644155 M 217.64248282449321 285.6957200818706 L 218.701171875 287.8830836369441 M 218.701171875 287.8830836369441 L 222.6307337381519 295.4989712623437 M 225.94709730655978 301.66282056562346 L 228.80859375 306.85272216796875 M 228.80859375 306.85272216796875 L 231.3889596509032 311.2210459316973 M 235.0190999930627 317.2052307752015 L 238.330078125 322.4224090576172 M 238.330078125 322.4224090576172 L 241.0515891883027 326.401637673612 M 245.11690364877242 332.09870911041946 L 247.265625 335.0041316105769 M 247.265625 335.0041316105769 L 251.66015625 340.47088623046875 M 251.66015625 340.47088623046875 L 251.90593378177235 340.7504877134285 M 256.5599726088626 345.97803754392214 L 260.009765625 349.5480757493239 M 260.009765625 349.5480757493239 L 264.111328125 353.3785013052133 M 264.111328125 353.3785013052133 L 264.43641725138747 353.64986476467976 M 269.8946636968643 358.0280658502419 L 272.021484375 359.5963404728816 M 272.021484375 359.5963404728816 L 275.830078125 362.0407984806941 M 275.830078125 362.0407984806941 L 279.19039590500495 363.8825111101199 M 285.61739565607 366.63713381936526 L 287.40234375 367.27752685546875 M 287.40234375 367.27752685546875 L 291.064453125 368.2480738713191 M 291.064453125 368.2480738713191 L 294.580078125 368.8692239614633 M 294.580078125 368.8692239614633 L 296.3177854048004 369.0290011332238 M 303.30571329124746 369.06767874687364 L 304.39453125 368.99308424729566 M 304.39453125 368.99308424729566 L 307.763671875 368.48892798790564 M 307.763671875 368.48892798790564 L 311.1328125 367.70535982572113 M 311.1328125 367.70535982572113 L 314.03321952149344 366.78503836697803 M 320.45987683998675 364.030565161467 L 322.412109375 363.048582810622 M 322.412109375 363.048582810622 L 326.220703125 360.7689197246845 M 326.220703125 360.7689197246845 L 329.8186048938043 358.2780646539738 M 335.2626257973059 353.88236496340284 L 337.79296875 351.6515878530649 M 337.79296875 351.6515878530649 L 341.748046875 347.77969947228064 M 341.748046875 347.77969947228064 L 343.1706356349792 346.2459709654281 M 347.8274757589751 341.02206090887256 L 350.09765625 338.34122877854566 M 350.09765625 338.34122877854566 L 354.345703125 332.88054833045373 M 354.345703125 332.88054833045373 L 354.6774968449482 332.418748898122 M 358.76084950450655 326.73316156144114 L 363.28125 319.9444110576923 M 363.28125 319.9444110576923 L 364.7781761275271 317.52629962091777 M 368.43818888395674 311.5598052969979 L 372.65625 304.25931490384613 M 372.65625 304.25931490384613 L 373.8786882209191 302.00030196554906 M 377.2101546133806 295.84389622226837 L 377.490234375 295.3263209416316 M 377.490234375 295.3263209416316 L 382.2052443890724 286.0436449764266 M 385.23557205953387 279.73374033827736 L 387.59765625 274.789546086238 M 387.59765625 274.789546086238 L 389.86399630734076 269.755656151183 M 392.737697931278 263.37272273647625 L 392.87109375 263.076430100661 M 392.87109375 263.076430100661 L 397.0468105869674 253.2519520858009 M 399.7153457106207 246.78092487524364 L 403.81763970288387 236.57449631276197 M 406.3099430721015 230.03322927845218 L 409.5703125 221.46888146033655 M 409.5703125 221.46888146033655 L 410.19391518416757 219.7419817195649 M 412.5714264306105 213.15810442172304 L 415.4296875 205.242919921875 M 415.4296875 205.242919921875 L 416.2682806214689 202.79819922941982 M 418.5395279551498 196.17691268153146 L 421.435546875 187.73425175593448 M 421.435546875 187.73425175593448 L 422.0790033195816 185.76211962410383 M 424.2502756455865 179.107378721084 L 427.587890625 168.8779097336989 M 427.587890625 168.8779097336989 L 427.659051882981 168.64890219975175 M 429.73624133214395 161.9641969712255 L 433.0003961808286 151.45966018354142 M 435.0268071905153 144.75954357305653 L 438.15177881712043 134.21276433326426 M 440.14039712496003 127.50117754430556 L 440.33203125 126.85441237229566 M 440.33203125 126.85441237229566 L 443.14364487767614 116.91914306295921 M 445.0497420559193 110.18365543791725 L 446.77734375 104.0789090670072 M 446.77734375 104.0789090670072 L 447.9938130747937 99.58513686778421 M 449.82288932034214 92.82832696310504 L 452.69715199191825 82.21048282718064 M 454.4801866172293 75.44147477569881 L 457.2400796343719 64.79332984177123 M 458.99637519073536 58.017237611090046 L 460.107421875 53.73062720665564 M 460.107421875 53.73062720665564 L 461.69166930541365 47.35269839875831 M 463.3791562875142 40.55914353512165 L 466.03092154510074 29.88355732083547 M 467.6903971354493 23.083186692320915 L 470.2398799849504 12.382713001866842 M 471.86227816190564 5.573320653396067 L 474.0234375 -3.497314453125 M 474.0234375 -3.497314453125 L 474.3970155594639 -5.130595933052808" stroke-linecap="round" stroke-linejoin="round" stroke-miterlimit="10" stroke-width="2.5" stroke-opacity="0.9" stroke-dasharray=""/></g></g><g id="sketch-0b43df02"><title>Expression 5</title><path fill="#000000" stroke="none" paint-order="stroke fill markers" d="" fill-opacity="0.4"/><g><path fill="none" stroke="#000000" class="dcg-svg-curve" paint-order="fill stroke markers" d=" M 0 365.9811813812675 L 0 365.9811813812675 L 3.662109375 365.53092975933293 L 6.884765625 364.8560530975838 L 9.814453125 363.9509325347693 L 12.744140625 362.7147320952488 L 15.673828125 361.1034200413838 L 18.45703125 359.19460182388343 L 21.09375 357.0296844086813 L 23.876953125 354.3620670876054 L 26.806640625 351.1363614483794 L 29.8828125 347.3119052321534 L 33.251953125 342.6582037457909 L 37.060546875 336.9042030644339 L 41.89453125 329.0458443229596 L 49.951171875 315.28986800535097 L 60.05859375 298.1963726457558 L 74.70703125 273.6746559226168 L 78.80859375 266.06724712897767 L 82.32421875 258.956661324297 L 85.693359375 251.49076777276508 L 88.916015625 243.65448861527688 L 92.138671875 235.0737813416368 L 95.5078125 225.27706182304567 L 99.169921875 213.69230533738315 L 103.271484375 199.68003672323607 L 108.251953125 181.55907733074656 L 120.41015625 136.84115876412426 L 123.92578125 125.28606224429427 L 126.85546875 116.62680992688433 L 129.345703125 110.12199607242269 L 131.54296875 105.13159246492927 L 133.59375 101.1714112523951 L 135.3515625 98.35087107173354 L 136.962890625 96.25409851907085 L 138.427734375 94.76770923732016 L 139.892578125 93.69096332041875 L 141.2109375 93.07789153307345 L 142.529296875 92.80543995836058 L 143.701171875 92.85040070618192 L 144.873046875 93.1654542072132 L 146.19140625 93.84107739248128 L 147.509765625 94.85335186335709 L 148.974609375 96.36649551057815 L 150.5859375 98.49186531277792 L 152.34375 101.34236521048024 L 154.248046875 105.02739016973754 L 156.298828125 109.64660926910454 L 158.642578125 115.68192847066808 L 161.279296875 123.32395957375832 L 164.35546875 133.1925196050815 L 168.1640625 146.48033292459826 L 173.876953125 167.64685288558582 L 182.080078125 197.94600742929094 L 186.474609375 213.04557211270267 L 190.283203125 225.12618873107087 L 193.798828125 235.3426380570815 L 197.16796875 244.27135388832428 L 200.537109375 252.3907195726526 L 203.90625 259.7767864280585 L 207.568359375 267.09940746043554 L 211.669921875 274.62636441847087 L 216.796875 283.39064643728966 L 239.0625 320.74655134901445 L 246.6796875 333.5515412303585 L 251.220703125 340.64569769747027 L 255.029296875 346.07510442486017 L 258.3984375 350.38171917110526 L 261.474609375 353.8528755415684 L 264.404296875 356.7224296615843 L 267.1875 359.0455865142614 L 269.970703125 360.9812134302743 L 272.75390625 362.5463778472839 L 275.68359375 363.82435890150055 L 278.759765625 364.8047725563316 L 281.982421875 365.49815488846997 L 285.498046875 365.9505707592404 L 289.74609375 366.20633191017276 L 296.19140625 366.2929356373867 L 310.693359375 366.19043241387726 L 315.087890625 365.89326384666845 L 318.603515625 365.3942782568362 L 321.6796875 364.68527726696504 L 324.609375 363.71249259202483 L 327.5390625 362.3983235188156 L 330.322265625 360.7952982264289 L 333.10546875 358.8194832575544 L 335.7421875 356.5892703137914 L 338.525390625 353.8528755415684 L 341.455078125 350.55731121272754 L 344.53125 346.66494290292513 L 348.046875 341.731281717694 L 352.001953125 335.66873361264385 L 356.982421875 327.48681413782055 L 368.115234375 308.4364393644202 L 377.05078125 293.5255598417642 L 387.451171875 276.1689278746338 L 391.845703125 268.21317595714345 L 395.5078125 260.9940449818823 L 398.876953125 253.72524871451122 L 402.099609375 246.10323302053322 L 405.322265625 237.7526400881717 L 408.69140625 228.20093882762973 L 412.20703125 217.34168123213428 L 416.015625 204.62585079031467 L 420.556640625 188.41360228068058 L 429.052734375 156.68322133861258 L 434.1796875 138.18562834977695 L 437.6953125 126.51008547127037 L 440.625 117.7196718698383 L 443.115234375 111.08294786991968 L 445.458984375 105.64710915993254 L 447.509765625 101.60421263748827 L 449.4140625 98.49186531277792 L 451.025390625 96.36649551057815 L 452.490234375 94.85335186335709 L 453.955078125 93.74930400428525 L 455.2734375 93.11133548360647 L 456.591796875 92.8138130653117 L 457.763671875 92.83644792331228 L 458.935546875 93.12923297830213 L 460.25390625 93.77998677864048 L 461.572265625 94.76770923732016 L 463.037109375 96.25409851907085 L 464.6484375 98.35087107173354 L 466.40625 101.1714112523951 L 468.310546875 104.82572796884119 L 470.361328125 109.41424345067776 L 472.705078125 115.41788606244234 L 475.341796875 123.0291080128091 L 478.41796875 132.86871225151015 L 482.080078125 145.60459364121604 L 487.5 165.6320973545705 L 496.435546875 198.64294491747486 L 500.830078125 213.69230533738315 L 504.638671875 225.72051734590124 L 508.154296875 235.88563072871398 L 511.5234375 244.7658246262388 L 514.892578125 252.84004550544122 L 518.26171875 260.1864719492482 L 521.923828125 267.473963336509 L 526.025390625 274.97253263653477 L 531.15234375 283.7173411769066 L 552.24609375 319.06967526737577 L 560.595703125 333.15651767696903 L 565.13671875 340.28114386240935 L 568.9453125 345.74515782736944 L 572.314453125 350.08791790415495 L 575.390625 353.5952316756128 L 578.3203125 356.50070918367766 L 581.103515625 358.85815854538237 L 583.88671875 360.8271404706942 L 586.669921875 362.4237191877872 L 589.599609375 363.73171686105195 L 592.67578125 364.73942845287957 L 595.8984375 365.4561357164923 L 599.4140625 365.9275586712543 L 600 365.9811813812675" stroke-linecap="round" stroke-linejoin="round" stroke-miterlimit="10" stroke-width="2.5" stroke-opacity="0.9" stroke-dasharray=""/></g></g></g><g id="labels-0b43df02"/></g></svg>