<svg version="1.1" xmlns="http://www.w3.org/2000/svg" xmlns:xlink="http://www.w3.org/1999/xlink" width="800" height="400"><defs/><g transform="scale(2,1)"><g id="background-95916157"><rect fill="none" stroke="none" x="0" y="0" width="400" height="400" class="dcg-svg-background"/></g><g id="background-images-95916157"/><g id="graphpaper-95916157"><g id="axis-95916157"><g><g><path fill="none" stroke="rgb(0,0,0)" class="dcg-svg-tickmark" paint-order="fill stroke markers" d="" stroke-opacity="0.9" stroke-miterlimit="2" stroke-width="1.5" stroke-dasharray=""/></g></g></g></g><g id="expressions-95916157"><g id="sketch-95916157"><title>Expression 3</title><path fill="#388c46" stroke="none" paint-order="stroke fill markers" d="" fill-opacity="0.4"/><g><path fill="none" stroke="#388c46" class="dcg-svg-curve" paint-order="fill stroke markers" d=" M 0 200 L 0 200 L 3.515625 165.14829841419993 L 5.37109375 147.37047364990914 L 6.93359375 132.97892652228063 L 8.30078125 120.94290270262644 L 9.5703125 110.31633820122022 L 10.7421875 101.03857743070256 L 11.81640625 93.02670656113065 L 12.79296875 86.18361812378043 L 13.76953125 79.78584620706715 L 14.6484375 74.4274930844947 L 15.52734375 69.4634033962123 L 16.40625 64.90708355295453 L 17.1875 61.20901016496043 L 17.96875 57.84983303408319 L 18.75 54.83578308405458 L 19.53125 52.1720292066276 L 20.21484375 50.13184150885576 L 20.8984375 48.36506077532579 L 21.58203125 46.87310881015736 L 22.265625 45.65676643216716 L 22.94921875 44.71617348620509 L 23.6328125 44.050830484210735 L 24.31640625 43.65960187035574 L 24.958118817635363 43.54021395145895 L 25.68359375 43.69179612126203 L 26.3671875 44.1098194323593 L 27.05078125 44.79117570671616 L 27.734375 45.731653945076516 L 28.41796875 46.926459932833495 L 29.1015625 48.37023036539716 L 29.8828125 50.31749330119516 L 30.6640625 52.5725000404766 L 31.4453125 55.124682884505035 L 32.2265625 57.96263338170934 L 33.10546875 61.48167952891413 L 33.984375 65.32840868440758 L 34.9609375 69.96294145838823 L 35.9375 74.94929875343723 L 37.01171875 80.8049648418812 L 38.18359375 87.58842763738414 L 39.453125 95.33957582877952 L 40.91796875 104.70938232678259 L 42.67578125 116.39937719609861 L 45.3125 134.42355564040105 L 48.53515625 156.3604498589526 L 50.29296875 167.8857130480036 L 51.7578125 177.08303983022728 L 53.02734375 184.6747854200873 L 54.19921875 191.31715480008253 L 55.2734375 197.06111396994007 L 56.34765625 202.44504620134464 L 57.32421875 207.0049699422553 L 58.30078125 211.22813492333725 L 59.27734375 215.0992562953594 L 60.15625 218.2714708308426 L 61.03515625 221.1401017738782 L 61.9140625 223.69884778874794 L 62.79296875 225.9429904142902 L 63.57421875 227.67111249068319 L 64.35546875 229.14704051378024 L 65.13671875 230.37064542847585 L 65.91796875 231.34279491095896 L 66.69921875 232.0653460415723 L 67.48046875 232.54113447335635 L 68.26171875 232.77396013728023 L 69.04296875 232.76856953713826 L 69.921875 232.4848598171511 L 70.80078125 231.9162983320889 L 71.6796875 231.073715287589 L 72.55859375 229.969278190678 L 73.4375 228.6164297579345 L 74.4140625 226.83977563641366 L 75.390625 224.79628717398765 L 76.46484375 222.26814226707424 L 77.63671875 219.213074222138 L 78.90625 215.6050202076392 L 80.37109375 211.13397399886165 L 82.2265625 205.14381878244262 L 87.6953125 187.2626933591677 L 89.16015625 182.89815055653858 L 90.4296875 179.40937957796564 L 91.6015625 176.4855763557154 L 92.67578125 174.09461709766043 L 93.65234375 172.1889818439085 L 94.62890625 170.56184470961514 L 95.5078125 169.35279560089643 L 96.38671875 168.40018253830505 L 97.265625 167.71670918061358 L 98.14453125 167.31376689954845 L 98.91792070715833 167.19922401527194 L 99.70703125 167.32039151621657 L 100.48828125 167.68241427858672 L 101.26953125 168.289547731306 L 102.05078125 169.14507892467262 L 102.83203125 170.2513225705101 L 103.61328125 171.60960859077124 L 104.39453125 173.2202731528483 L 105.17578125 175.08265322613403 L 106.0546875 177.47659855448705 L 106.93359375 180.18310619685906 L 107.8125 183.19670430875837 L 108.69140625 186.51034710158697 L 109.5703125 190.11543888169538 L 110.546875 194.45056689476985 L 111.5234375 199.11697021327464 L 112.59765625 204.61085694315278 L 113.671875 210.45638929506623 L 114.84375 217.19901611605368 L 116.11328125 224.88580447369344 L 117.578125 234.17376593189908 L 119.23828125 245.12366074779152 L 121.484375 260.39124969257955 L 125.78125 289.6716409145067 L 127.44140625 300.5077016624979 L 128.80859375 309.04351791720813 L 130.078125 316.56847121078204 L 131.25 323.10751537842356 L 132.32421875 328.7102156863147 L 133.30078125 333.44362707376564 L 134.1796875 337.3858662407874 L 135.05859375 341.00626334087275 L 135.9375 344.2859479642939 L 136.71875 346.9008675925255 L 137.5 349.22100618794724 L 138.28125 351.2356110268467 L 139.0625 352.93480071362785 L 139.74609375 354.1557753015881 L 140.4296875 355.12295400759956 L 141.11328125 355.83148271029364 L 141.796875 356.27708910150363 L 142.48046875 356.4560954976667 L 143.1640625 356.3654301518586 L 143.84765625 356.0026370356526 L 144.53125 355.36588406397095 L 145.21484375 354.45396974015244 L 145.8984375 353.26632820256873 L 146.58203125 351.80303265828627 L 147.265625 350.0647971934716 L 147.94921875 348.052976954465 L 148.6328125 345.7695666976959 L 149.4140625 342.83080017554903 L 150.1953125 339.54569923657874 L 150.9765625 335.92026664875084 L 151.7578125 331.96155430882783 L 152.63671875 327.11973116061466 L 153.515625 321.87938396768163 L 154.39453125 316.25510373543375 L 155.37109375 309.575243855547 L 156.34765625 302.4654832593715 L 157.421875 294.17962648270316 L 158.59375 284.62793399338784 L 159.86328125 273.73616978221014 L 161.23046875 261.4536926421747 L 162.79296875 246.8331331904173 L 164.6484375 228.86003210695358 L 167.3828125 201.68792309924268 L 171.09375 164.89005863172792 L 172.94921875 147.1213205937898 L 174.51171875 132.74019665997633 L 175.87890625 120.71526406225001 L 177.1484375 110.10054895005203 L 178.3203125 100.8349646851824 L 179.39453125 92.83522523708831 L 180.37109375 86.00390827619657 L 181.34765625 79.61855622692019 L 182.2265625 74.2718855195717 L 183.10546875 69.31990865721411 L 183.984375 64.77608452823534 L 184.765625 61.0894003557554 L 185.546875 57.74184116795607 L 186.328125 54.73960209779233 L 187.109375 52.087815736559946 L 187.79296875 50.058199270853834 L 188.4765625 48.302056856786635 L 189.16015625 46.82078545413526 L 189.84375 45.61514100740055 L 190.52734375 44.68523852041403 L 191.2109375 44.03055376052555 L 191.89453125 43.649926586573145 L 192.578125 43.54156589060858 L 193.26171875 43.70305613914792 L 193.9453125 44.13136549555139 L 194.62890625 44.82285550102023 L 195.3125 45.77329228764512 L 195.99609375 46.97785929295111 L 196.6796875 48.43117144148346 L 197.4609375 50.38904357660505 L 198.2421875 52.65431503903261 L 199.0234375 55.21638894333938 L 199.8046875 58.06382901345751 L 200.68359375 61.59303825029599 L 201.5625 65.44935381343043 L 202.5390625 70.09382222541598 L 203.515625 75.0893222545377 L 204.58984375 80.954086256587 L 205.76171875 87.74628050710021 L 207.03125 95.50543178652725 L 208.49609375 104.88253585941493 L 210.25390625 116.57849193134689 L 212.98828125 135.2771945855169 L 216.015625 155.88511799597808 L 217.7734375 167.42864852366014 L 219.23828125 176.6465553838574 L 220.5078125 184.25978338263596 L 221.6796875 190.9247477402885 L 222.8515625 197.19846284543598 L 223.92578125 202.57316355901918 L 224.90234375 207.12416444572415 L 225.87890625 211.33796203700757 L 226.85546875 215.19933247071236 L 227.734375 218.36249507455628 L 228.61328125 221.22186099684455 L 229.4921875 223.77117639065747 L 230.37109375 226.00577079706795 L 231.15234375 227.72534588635102 L 231.93359375 229.1927061502474 L 232.71484375 230.40775644644654 L 233.49609375 231.3713981730346 L 234.27734375 232.08552182186978 L 235.05859375 232.5529960288355 L 235.83984375 232.77765316238424 L 236.62109375 232.7642715037521 L 237.5 232.47182254875605 L 238.37890625 231.8948284595408 L 239.2578125 231.04416064016502 L 240.13671875 229.93202600872783 L 241.015625 228.57190472968085 L 241.9921875 226.78771063865125 L 242.96875 224.73729518230823 L 244.04296875 222.2022878483135 L 245.21484375 219.1406944901469 L 246.484375 215.52676570943663 L 247.94921875 211.0505586813949 L 249.8046875 205.05645455877925 L 255.17578125 187.48235564165265 L 256.640625 183.1023836212956 L 257.91015625 179.59654023819286 L 259.08203125 176.65408261244386 L 260.15625 174.24372160660687 L 261.1328125 172.3186587467828 L 262.109375 170.67050935070822 L 262.98828125 169.44129815777842 L 263.8671875 168.46743927531594 L 264.74609375 167.76173983535264 L 265.625 167.33569968818696 L 266.469528898614 167.19922401527194 L 267.28515625 167.32870355730503 L 268.06640625 167.69898153134804 L 268.84765625 168.31449754316824 L 269.62890625 169.17850588167104 L 270.41015625 170.29328801797197 L 271.19140625 171.66014027164817 L 271.97265625 173.27936496506717 L 272.75390625 175.1502650999265 L 273.6328125 177.55370530900882 L 274.51171875 180.26956595248657 L 275.390625 183.29232741589587 L 276.26953125 186.6148967625084 L 277.24609375 190.64770443091203 L 278.22265625 195.02589016006047 L 279.19921875 199.7331567949425 L 280.2734375 205.2691353309385 L 281.34765625 211.15343244002264 L 282.51953125 217.93417359623726 L 283.7890625 225.6568981714942 L 285.25390625 234.97883546812375 L 287.01171875 246.61320105842634 L 289.453125 263.25595562977855 L 293.1640625 288.54704665812193 L 294.921875 300.0529625751079 L 296.2890625 308.6096795750643 L 297.55859375 316.1583195395029 L 298.73046875 322.72276365867424 L 299.8046875 328.3516094987067 L 300.78125 333.11105811768795 L 301.66015625 337.07848798156675 L 302.5390625 340.7256524346928 L 303.41796875 344.0335888470555 L 304.19921875 346.67478751617807 L 304.98046875 349.02222622344226 L 305.76171875 351.06507481387763 L 306.54296875 352.79337099750035 L 307.2265625 354.0404554555826 L 307.91015625 355.03428204681217 L 308.59375 355.76993689770137 L 309.27734375 356.24308652995035 L 309.9609375 356.4499908259546 L 310.64453125 356.387514498379 L 311.328125 356.0531370325761 L 312.01171875 355.444961074603 L 312.6953125 354.56171924163255 L 313.37890625 353.40277933566415 L 314.0625 351.9681479455927 L 314.74609375 350.25847242689736 L 315.4296875 348.2750412524324 L 316.11328125 346.0197827320524 L 316.89453125 343.1128143121868 L 317.67578125 339.8590175725673 L 318.45703125 336.26429889731367 L 319.23828125 332.3356154090174 L 320.1171875 327.5266403348192 L 320.99609375 322.31802794800035 L 321.875 316.72424458987973 L 322.8515625 310.0766724336996 L 323.828125 302.99736609723203 L 324.90234375 294.74271448195293 L 326.07421875 285.2221130475767 L 327.34375 274.360310094072 L 328.7109375 262.105495751404 L 330.2734375 247.51037581187015 L 332.12890625 229.5585144636914 L 334.86328125 202.39925420934645 L 338.671875 164.63192279345324 L 340.52734375 146.87232367426742 L 342.08984375 132.5016647791893 L 343.45703125 120.48785799836276 L 344.7265625 109.88502240871998 L 345.8984375 100.6316405444756 L 346.97265625 92.64405447745014 L 347.94921875 85.8245273704681 L 348.92578125 79.45161196571866 L 349.8046875 74.11663733952815 L 350.68359375 69.17678555772557 L 351.5625 64.64546794108333 L 352.34375 60.97018132782813 L 353.125 57.63424722166752 L 353.90625 54.6438249455137 L 354.6875 52.00401077502005 L 355.37109375 49.98496860595236 L 356.0546875 48.239466613530794 L 356.73828125 46.76887691084744 L 357.421875 45.57393056819956 L 358.10546875 44.6547177509654 L 358.7890625 44.010689486913975 L 359.47265625 43.64066105698686 L 360.15625 43.542816999362856 L 360.83984375 43.71471771241022 L 361.5234375 44.15330763797152 L 362.20703125 44.854925002311404 L 362.890625 45.81531308800288 L 363.57421875 47.02963300604648 L 364.2578125 48.49247793361678 L 365.0390625 50.46094806841353 L 365.8203125 52.73647204237341 L 366.6015625 55.30842382808288 L 367.3828125 58.16533937282344 L 368.26171875 61.704694803118684 L 369.140625 65.5705788550618 L 370.1171875 70.2249618941459 L 371.09375 75.22958259985296 L 372.16796875 81.1034191884454 L 373.33984375 87.90431618502646 L 374.609375 95.67143843451476 L 376.07421875 105.05580208473481 L 377.83203125 116.75767305777674 L 380.56640625 135.45947396273 L 383.59375 156.0623641488904 L 385.3515625 167.5991199695319 L 386.81640625 176.8093822939713 L 388.0859375 184.41462411504085 L 389.2578125 191.07118433649393 L 390.4296875 197.3355917766029 L 391.50390625 202.70104502040942 L 392.48046875 207.24311019451423 L 393.45703125 211.4475291670844 L 394.43359375 215.29913911595867 L 395.3125 218.45324267091706 L 396.19140625 221.30333787838512 L 397.0703125 223.8432183988773 L 397.94921875 226.0682617878402 L 398.73046875 227.77928862789182 L 399.51171875 229.23808102335667 L 400 230.02166968317732" stroke-linecap="round" stroke-linejoin="round" stroke-miterlimit="10" stroke-width="2.5" stroke-opacity="0.9" stroke-dasharray=""/></g></g></g><g id="labels-95916157"/></g></svg>