<svg version="1.1" xmlns="http://www.w3.org/2000/svg" xmlns:xlink="http://www.w3.org/1999/xlink" width="800" height="400"><defs/><g transform="scale(2,1)"><g id="background-3937075e"><rect fill="none" stroke="none" x="0" y="0" width="400" height="400" class="dcg-svg-background"/></g><g id="background-images-3937075e"/><g id="graphpaper-3937075e"><g id="axis-3937075e"><g><g><path fill="none" stroke="rgb(0,0,0)" class="dcg-svg-tickmark" paint-order="fill stroke markers" d="" stroke-opacity="0.9" stroke-miterlimit="2" stroke-width="1.5" stroke-dasharray=""/></g></g></g></g><g id="expressions-3937075e"><g id="sketch-3937075e"><title>Expression 1</title><path fill="#c74440" stroke="none" paint-order="stroke fill markers" d="" fill-opacity="0.4"/><g><path fill="none" stroke="#c74440" class="dcg-svg-curve" paint-order="fill stroke markers" d=" M 0 200 L 0 200 L 5.76171875 180.94335530555514 L 8.88671875 170.92286267381178 L 11.42578125 163.0687392110374 L 13.76953125 156.11415561943363 L 15.91796875 150.0354727434269 L 17.87109375 144.78967954469726 L 19.7265625 140.0799655011072 L 21.58203125 135.66023052979608 L 23.33984375 131.76000242369167 L 25 128.34834593238287 L 26.66015625 125.21430666766452 L 28.22265625 122.52911424403783 L 29.78515625 120.10982091146309 L 31.34765625 117.96473027834548 L 32.91015625 116.1012048221371 L 34.375 114.61556967272685 L 35.83984375 113.38751599270472 L 37.3046875 112.42074848408947 L 38.76953125 111.71818361999527 L 40.234375 111.28194084643047 L 41.69921875 111.11333618850875 L 43.1640625 111.21287828036128 L 44.62890625 111.58026683072666 L 46.09375 112.2143935288475 L 47.55859375 113.11334538794102 L 49.0234375 114.27441051615654 L 50.48828125 115.69408629761159 L 51.953125 117.3680899588258 L 53.515625 119.42831559594947 L 55.078125 121.76508302601263 L 56.640625 124.3703718897591 L 58.203125 127.23524019647806 L 59.86328125 130.55257124979136 L 61.5234375 134.13897916970825 L 63.28125 138.214177613365 L 65.13671875 142.80655405548498 L 67.08984375 147.93921225960182 L 69.140625 153.6284251068965 L 71.2890625 159.88196839337502 L 73.6328125 166.99939614847904 L 76.26953125 175.30820148908913 L 79.39453125 185.46137242511344 L 84.27734375 201.67170028814513 L 89.55078125 219.09980943628176 L 92.578125 228.81114354949742 L 95.1171875 236.67518090603448 L 97.4609375 243.64097720402765 L 99.609375 249.7316013655036 L 101.5625 254.9895637830814 L 103.41796875 259.7119360688206 L 105.2734375 264.14533636096826 L 107.03125 268.05937965014857 L 108.69140625 271.4848052440519 L 110.3515625 274.6332600738681 L 111.9140625 277.3325606374525 L 113.4765625 279.7664368757363 L 115.0390625 281.9265351282033 L 116.6015625 283.8054414075689 L 118.06640625 285.30578809349316 L 119.53125 286.54879055213587 L 120.99609375 287.5306989851027 L 122.4609375 288.24855124325234 L 123.92578125 288.7001817626905 L 125.390625 288.88422809768343 L 126.85546875 288.8001350307844 L 128.3203125 288.4481562477727 L 129.78515625 287.8293535723527 L 131.25 286.94559376292284 L 132.71484375 285.7995428810755 L 134.1796875 284.3946582488192 L 135.64453125 282.73517801878324 L 137.20703125 280.6900996089659 L 138.76953125 278.368072976167 L 140.33203125 275.77706788560926 L 141.89453125 272.9259773025887 L 143.5546875 269.6226777397204 L 145.21484375 266.04962230096305 L 146.97265625 261.9877642328556 L 148.828125 257.40851658624626 L 150.78125 252.28855260287918 L 152.83203125 246.61135315268353 L 154.98046875 240.36887396278723 L 157.32421875 233.26165797459842 L 159.9609375 224.96192865413371 L 163.0859375 214.8160919598838 L 167.87109375 198.93507361473505 L 173.33984375 180.85703054331694 L 176.3671875 171.14705122032646 L 178.90625 163.2845660653092 L 181.25 156.3205266006788 L 183.3984375 150.23177430863345 L 185.3515625 144.97572011974407 L 187.20703125 140.2553332406929 L 189.0625 135.82407675326044 L 190.8203125 131.9122011557384 L 192.48046875 128.48893633855317 L 194.140625 125.34274402475353 L 195.703125 122.64565798030122 L 197.265625 120.21407102019856 L 198.828125 118.05632894759714 L 200.390625 116.179837662794 L 201.85546875 114.68180108132805 L 203.3203125 113.44114616720816 L 204.78515625 112.46161563692914 L 206.25 111.74616446615028 L 207.71484375 111.29695097534216 L 209.1796875 111.1153303187242 L 210.64453125 111.20185039613511 L 212.109375 111.55625020016885 L 213.57421875 112.17746060356279 L 215.0390625 113.06360758446192 L 216.50390625 114.21201787983046 L 217.96875 115.6192270499547 L 219.43359375 117.28098992971064 L 220.99609375 119.32844923982657 L 222.55859375 121.65279310872307 L 224.12109375 124.24604381785468 L 225.68359375 127.09930069441128 L 227.34375 130.40480671603933 L 229.00390625 133.97996212392292 L 230.76171875 138.04391858360003 L 232.6171875 142.62523172687247 L 234.5703125 147.74719329625216 L 236.62109375 153.42628374845242 L 238.76953125 159.67050518547785 L 241.11328125 166.77933009808967 L 243.75 175.0804907144183 L 246.875 185.22748630527806 L 251.66015625 201.10911776097137 L 257.12890625 219.1861247449796 L 260.15625 228.894746877457 L 262.6953125 236.7556778873634 L 265.0390625 243.71795879713406 L 267.1875 249.8048377146211 L 269.140625 255.05898237553572 L 270.99609375 259.7773826810285 L 272.8515625 264.2064942683477 L 274.609375 268.11620120720363 L 276.26953125 271.53730440144625 L 277.9296875 274.68123342149676 L 279.4921875 277.3761042801025 L 281.0546875 279.80540136094055 L 282.6171875 281.9607867202867 L 284.1796875 283.83486254666235 L 285.64453125 285.3305886533583 L 287.109375 286.5688957162679 L 288.57421875 287.546048101721 L 290.0390625 288.259098008271 L 291.50390625 288.7058943594044 L 292.96875 288.8850892927511 L 294.43359375 288.7961422262159 L 295.8984375 288.43932148876706 L 297.36328125 287.81570351096116 L 298.828125 286.92716957764657 L 300.29296875 285.77640015264166 L 301.7578125 284.36686679250874 L 303.22265625 282.7028216738174 L 304.78515625 280.6529819695309 L 306.34765625 278.32632143911 L 307.91015625 275.730825752451 L 309.47265625 272.875403287678 L 311.1328125 269.5676916244048 L 312.79296875 265.99043713116646 L 314.55078125 261.92438328452175 L 316.40625 257.34100577707784 L 318.359375 252.21704788782455 L 320.41015625 246.5360678374797 L 322.55859375 240.2901056968845 L 324.90234375 233.17967361713738 L 327.5390625 224.87708375697557 L 330.6640625 214.72893177782342 L 335.44921875 198.84669113749393 L 340.8203125 181.08866558656422 L 343.9453125 171.06346216748457 L 346.484375 163.20408724589592 L 348.828125 156.24356661204723 L 350.9765625 150.15856257378306 L 352.9296875 144.90632873965754 L 354.78515625 140.1899161741025 L 356.640625 135.76295058176441 L 358.3984375 131.85541326804656 L 360.05859375 128.4364725424365 L 361.71875 125.29480759330824 L 363.28125 122.60215258671593 L 364.84375 120.17514598566004 L 366.40625 118.0221178723761 L 367.96875 116.15045796769584 L 369.43359375 114.65704270551049 L 370.8984375 113.42108379991834 L 372.36328125 112.4463098008411 L 373.828125 111.73566133478465 L 375.29296875 111.29128223377307 L 376.7578125 111.11451306799432 L 378.22265625 111.20588710166635 L 379.6875 111.56512868432486 L 381.15234375 112.1911540823856 L 382.6171875 113.08207474847171 L 384.08203125 114.23520301864511 L 385.546875 115.64706022035278 L 387.01171875 117.31338716663072 L 388.57421875 119.36560675837148 L 390.13671875 121.69458337517085 L 391.69921875 124.2923233977557 L 393.26171875 127.14991074489029 L 394.921875 130.4598272321487 L 396.58203125 134.0391799264516 L 398.33984375 138.1073301549432 L 400 142.19663643047846" stroke-linecap="round" stroke-linejoin="round" stroke-miterlimit="10" stroke-width="2.5" stroke-opacity="0.9" stroke-dasharray=""/></g></g></g><g id="labels-3937075e"/></g></svg>