<svg version="1.1" xmlns="http://www.w3.org/2000/svg" xmlns:xlink="http://www.w3.org/1999/xlink" width="800" height="400"><defs/><g transform="scale(2,1)"><g id="background-484a23f6"><rect fill="none" stroke="none" x="0" y="0" width="400" height="400" class="dcg-svg-background"/></g><g id="background-images-484a23f6"/><g id="graphpaper-484a23f6"><g id="axis-484a23f6"><g><g><path fill="none" stroke="rgb(0,0,0)" class="dcg-svg-tickmark" paint-order="fill stroke markers" d="" stroke-opacity="0.9" stroke-miterlimit="2" stroke-width="1.5" stroke-dasharray=""/></g></g></g></g><g id="expressions-484a23f6"><g id="sketch-484a23f6"><title>Expression 2</title><path fill="#2d70b3" stroke="none" paint-order="stroke fill markers" d="" fill-opacity="0.4"/><g><path fill="none" stroke="#2d70b3" class="dcg-svg-curve" paint-order="fill stroke markers" d=" M 0 200 L 0 200 L 3.22265625 178.72419571842343 L 4.98046875 167.56363659275516 L 6.4453125 158.6852533405744 L 7.71484375 151.38991361765042 L 8.88671875 145.04516590740604 L 9.9609375 139.60069172598526 L 10.9375 134.99031216442455 L 11.9140625 130.728515873729 L 12.79296875 127.20986557957457 L 13.671875 124.00738691003653 L 14.55078125 121.1349901689191 L 15.33203125 118.8689738171966 L 16.11328125 116.88141905665918 L 16.89453125 115.17914766298526 L 17.67578125 113.76800224933066 L 18.45703125 112.65282621304607 L 19.23828125 111.83744711194919 L 19.921875 111.37214310245531 L 20.60546875 111.13975213534246 L 21.2890625 111.14088493154037 L 21.97265625 111.37553851407296 L 22.65625 111.84309621588181 L 23.33984375 112.54232930042025 L 24.12109375 113.62275200730778 L 24.90234375 114.99964262604004 L 25.68359375 116.66827533012832 L 26.46484375 118.62292296265446 L 27.24609375 120.8568766932787 L 28.02734375 123.36246904459142 L 28.90625 126.49521036605904 L 29.78515625 129.9472274924238 L 30.6640625 133.70352622327994 L 31.640625 138.214177613365 L 32.6171875 143.05612584208586 L 33.69140625 148.73388071841921 L 34.86328125 155.30577584967688 L 36.1328125 162.81302925766414 L 37.59765625 171.88935743608306 L 39.35546875 183.21843496461614 L 41.9921875 200.69522925914688 L 45.1171875 221.3187117094076 L 46.875 232.47750655161133 L 48.33984375 241.3538724267574 L 49.609375 248.64708112298695 L 50.78125 254.9895637830814 L 51.85546875 260.431725680838 L 52.83203125 265.0398202485553 L 53.80859375 269.2991699747952 L 54.6875 272.8154910437495 L 55.56640625 276.0155303489202 L 56.4453125 278.88538818213937 L 57.2265625 281.1490730657479 L 58.0078125 283.13423441684057 L 58.7890625 284.8340586745073 L 59.5703125 286.2427116247636 L 60.3515625 287.3553584250049 L 61.1328125 288.1681801983723 L 61.81640625 288.63123040052886 L 62.5 288.8613586947754 L 63.18359375 288.8579603064617 L 63.8671875 288.6210441665153 L 64.55078125 288.15123288797076 L 65.234375 287.44976112974996 L 66.015625 286.36680573188374 L 66.796875 284.9874182625745 L 67.578125 283.31633311811464 L 68.359375 281.35928587279955 L 69.140625 279.12299359302904 L 69.921875 276.6151317826872 L 70.80078125 273.4799295926448 L 71.6796875 270.02555957991615 L 72.55859375 266.26702616491696 L 73.53515625 261.75404221206526 L 74.51171875 256.9099318265214 L 75.5859375 251.2300092046215 L 76.7578125 244.65601688048193 L 78.02734375 237.1468248117945 L 79.4921875 228.06871258545323 L 81.25 216.7381630358502 L 83.88671875 199.2605774994817 L 87.01171875 178.63838613270525 L 88.76953125 167.48135833239843 L 90.234375 158.60701202850743 L 91.50390625 151.3159361618393 L 92.67578125 144.97572011974407 L 93.75 139.53587185094352 L 94.7265625 134.93006341618144 L 95.703125 130.67316130730023 L 96.58203125 127.15917033277373 L 97.4609375 123.96157118301386 L 98.33984375 121.09425296711635 L 99.12109375 118.83290011120016 L 99.90234375 116.85013266028028 L 100.68359375 115.15275595881405 L 101.46484375 113.74659582017216 L 102.24609375 112.63647853101833 L 103.02734375 111.82621428630847 L 103.7109375 111.36541800595427 L 104.39453125 111.13755244146131 L 105.078125 111.14321642105074 L 105.76171875 111.3823950598458 L 106.4453125 111.85445979898947 L 107.12890625 112.5581700574902 L 107.91015625 113.64365787863062 L 108.69140625 115.02554185753507 L 109.47265625 116.69907902927753 L 110.25390625 118.65852540360322 L 111.03515625 120.89715567971291 L 111.81640625 123.40728632914539 L 112.6953125 126.54494861274674 L 113.57421875 130.00167065792573 L 114.453125 133.7624378279658 L 115.4296875 138.27775322798323 L 116.40625 143.12402457289545 L 117.48046875 148.80611353629612 L 118.65234375 155.38220142823954 L 119.921875 162.89333030136953 L 121.38671875 171.97322433154147 L 123.14453125 183.30524310132472 L 125.78125 200.78361555910584 L 128.90625 221.40451074463252 L 130.6640625 232.5597687450469 L 132.12890625 241.43209328396182 L 133.3984375 248.72103451872883 L 134.5703125 255.05898237553572 L 135.64453125 260.4965156706604 L 136.62109375 265.1000368339203 L 137.59765625 269.35449027314496 L 138.4765625 272.86615028459187 L 139.35546875 276.06130848850063 L 140.234375 278.9260863782811 L 141.015625 281.18510664750295 L 141.796875 283.1654797081137 L 142.578125 284.86040843379135 L 143.359375 286.2640754132186 L 144.140625 287.3716629168662 L 144.921875 288.17936943262276 L 145.60546875 288.63791167726674 L 146.2890625 288.86351445567817 L 146.97265625 288.85558488621314 L 147.65625 288.61414380769395 L 148.33984375 288.13982572464454 L 149.0234375 287.43387713981974 L 149.8046875 286.34585716373556 L 150.5859375 284.9614770168349 L 151.3671875 283.28548823150504 L 152.1484375 281.32364321254 L 152.9296875 279.08267549347613 L 153.7109375 276.57027662545255 L 154.58984375 273.43015502391626 L 155.46875 269.9710818007818 L 156.34765625 266.2080818053552 L 157.32421875 261.6904360743491 L 158.30078125 256.8420049680574 L 159.375 251.15775106775726 L 160.546875 244.57956923360612 L 161.81640625 237.06650541277003 L 163.28125 227.98483182329946 L 165.0390625 216.651346634589 L 167.67578125 199.1721915760148 L 170.80078125 178.55259766918297 L 172.4609375 168.0056554484758 L 173.92578125 159.1057615234218 L 175.1953125 151.78766690162809 L 176.3671875 145.41871127268828 L 177.44140625 139.9495082934639 L 178.41796875 135.31467980743878 L 179.39453125 131.02669532636742 L 180.2734375 127.48310446627892 L 181.15234375 124.2544983888892 L 182.03125 121.35490088515365 L 182.8125 119.06390040756355 L 183.59375 117.05069248526593 L 184.375 115.32218694188566 L 185.15625 113.884316432618 L 185.9375 112.7420160819002 L 186.71875 111.8992065448532 L 187.40234375 111.40972378174888 L 188.0859375 111.15305529940974 L 188.76953125 111.12987561981112 L 189.453125 111.34024565889854 L 190.13671875 111.78361256650106 L 190.8203125 112.45881117921567 L 191.6015625 113.5120383329006 L 192.3828125 114.86211339492951 L 193.1640625 116.50440257638496 L 193.9453125 118.43326913778316 L 194.7265625 120.64209273574676 L 195.5078125 123.12329214564858 L 196.38671875 126.22957671862497 L 197.265625 129.65629090425716 L 198.14453125 133.38855040813104 L 199.12109375 137.87410048126986 L 200.09765625 142.6927708935566 L 201.171875 148.3471749746325 L 202.34375 154.89646251089178 L 203.61328125 162.38279500588737 L 205.078125 171.43983703296917 L 206.8359375 182.7529417713958 L 209.375 199.5699334157673 L 212.59765625 220.85798956682422 L 214.35546875 232.03557320959325 L 215.8203125 240.93347333555806 L 217.08984375 248.24945631069104 L 218.26171875 254.6161637495855 L 219.3359375 260.0830689176821 L 220.3125 264.7156246694246 L 221.2890625 269.0011739229909 L 222.16796875 272.5424449219537 L 223.046875 275.7686201617557 L 223.92578125 278.6656864100409 L 224.70703125 280.9543614607274 L 225.48828125 282.965181276908 L 226.26953125 284.69124423152414 L 227.05078125 286.12662605294446 L 227.83203125 287.26640015851933 L 228.61328125 288.1066545638209 L 229.296875 288.5938847830017 L 229.98046875 288.8482912381485 L 230.6640625 288.86920535186863 L 231.34765625 288.6565721620992 L 232.03125 288.2109504665465 L 232.71484375 287.5335113541715 L 233.49609375 286.47774867613373 L 234.27734375 285.12517314324316 L 235.05859375 283.4804271266469 L 235.83984375 281.54915579828986 L 236.62109375 279.33798775529965 L 237.40234375 276.8545122690142 L 238.28125 273.74575854892544 L 239.16015625 270.31668235004713 L 240.0390625 266.5821782264471 L 241.015625 262.09428365513185 L 241.9921875 257.27343826957366 L 243.06640625 251.61685140938974 L 244.23828125 245.06544927388856 L 245.5078125 237.57715822853854 L 246.97265625 228.5183080995611 L 248.73046875 217.20370130613986 L 251.26953125 200.38587236926242 L 254.4921875 179.09905227635969 L 256.25 167.92320605146892 L 257.71484375 159.02730192413685 L 258.984375 151.71343240416132 L 260.15625 145.34897472914986 L 261.23046875 139.88436872358938 L 262.20703125 135.25408685128826 L 263.18359375 130.97097388460645 L 264.0625 127.4320236221647 L 264.94140625 124.20828001745457 L 265.8203125 121.31374574076881 L 266.6015625 119.02739668274194 L 267.3828125 117.01896546974905 L 268.1640625 115.29534553057653 L 268.9453125 113.86245275182699 L 269.7265625 112.72520517314507 L 270.5078125 111.88750610729818 L 271.19140625 111.40252855248326 L 271.875 111.15038418741773 L 272.55859375 111.13173564474585 L 273.2421875 111.34663193263475 L 273.92578125 111.79450830598097 L 274.609375 112.47418775055468 L 275.390625 113.53248569196285 L 276.171875 114.88756136136101 L 276.953125 116.53476380652006 L 277.734375 118.46843942442939 L 278.515625 120.68195136584973 L 279.296875 123.16770231460856 L 280.17578125 126.27892441333182 L 281.0546875 129.71036177779524 L 281.93359375 133.44710959795935 L 282.91015625 137.93734755805218 L 283.88671875 142.76036672517836 L 284.9609375 148.419134966173 L 286.1328125 154.97265008142222 L 287.40234375 162.46289782603577 L 288.8671875 171.52355381757877 L 290.625 182.83965986904585 L 293.26171875 200.3093621418146 L 296.38671875 220.94390071378282 L 298.14453125 232.1180067581479 L 299.609375 241.01191268779712 L 300.87890625 248.32366694464088 L 302.05078125 254.68587328248785 L 303.125 260.1481787746722 L 304.1015625 264.7761856229354 L 305.078125 269.0568612439555 L 305.95703125 272.59348989505463 L 306.8359375 275.81480106776974 L 307.71484375 278.7068026573328 L 308.49609375 280.990825157519 L 309.27734375 282.9968672708439 L 310.05859375 284.71804376849735 L 310.83984375 286.1484471503677 L 311.62109375 287.2831679210313 L 312.40234375 288.11831144034596 L 313.0859375 288.60103621090946 L 313.76953125 288.8509184235643 L 314.453125 288.86730139057795 L 315.13671875 288.6501420576915 L 315.8203125 288.200011117266 L 316.50390625 287.518091508509 L 317.28515625 286.45725856533966 L 318.06640625 285.0996830944059 L 318.84765625 283.4500246278693 L 319.62890625 281.51394519840846 L 320.41015625 279.2980899057338 L 321.19140625 276.81006410897436 L 322.0703125 273.6963744007046 L 322.94921875 270.26257671890073 L 323.828125 266.52358612588944 L 324.8046875 262.03100588699704 L 325.78125 257.2058141305439 L 326.85546875 251.54486590757494 L 328.02734375 244.9892394325938 L 329.296875 237.49703684029143 L 330.76171875 228.43457722595937 L 332.51953125 217.11697471376576 L 335.15625 199.64644348499405 L 338.28125 179.01315147336604 L 340.0390625 167.84078837174383 L 341.50390625 158.9488828383337 L 342.7734375 151.63924565207313 L 343.9453125 145.27929222411566 L 345.01953125 139.81928859557866 L 345.99609375 135.19355791538783 L 346.97265625 130.91532069820397 L 347.8515625 127.38101453269513 L 348.73046875 124.16213658827701 L 349.609375 121.27266840073372 L 350.390625 118.99097302299407 L 351.171875 116.98732050522693 L 351.953125 115.26858787456393 L 352.734375 113.84067424316567 L 353.515625 112.70848056102113 L 354.296875 111.87589279468455 L 354.98046875 111.39542092770108 L 355.6640625 111.14780092922746 L 356.34765625 111.13368354192193 L 357.03125 111.35310586612457 L 357.71484375 111.8054912623578 L 358.3984375 112.48965086672888 L 359.1796875 113.5530185494236 L 359.9609375 114.91309348630278 L 360.7421875 116.56520756642465 L 361.5234375 118.50369032884191 L 362.3046875 120.72188842501583 L 363.0859375 123.21218845474073 L 363.96484375 126.3283450028589 L 364.84375 129.76450215317521 L 365.72265625 133.50573459476254 L 366.69921875 138.00065600189743 L 367.67578125 142.8280191548996 L 368.75 148.4911459604674 L 369.921875 155.0488821746424 L 371.19140625 162.54303776257572 L 372.65625 171.60729875947456 L 374.4140625 182.92639493470534 L 377.05078125 200.39775080079878 L 380.17578125 221.02979115157703 L 381.93359375 232.20040854867 L 383.3984375 241.09031148777925 L 384.66796875 248.39782979652867 L 385.83984375 254.75552874242845 L 386.9140625 260.2132291576159 L 387.890625 264.83668252626285 L 388.8671875 269.1124802820385 L 389.74609375 272.64446308828343 L 390.625 275.86090700870426 L 391.50390625 278.74784107995686 L 392.28515625 281.0272087712193 L 393.06640625 283.02847119812975 L 393.84765625 284.74475953693485 L 394.62890625 286.17018306488353 L 395.41015625 287.2998493786329 L 396.19140625 288.12988118617733 L 396.875 288.60810003080906 L 397.55859375 288.8534577538904 L 398.2421875 288.8653095579981 L 398.92578125 288.64362429672 L 399.609375 288.18898455650776 L 400 287.8250332526988" stroke-linecap="round" stroke-linejoin="round" stroke-miterlimit="10" stroke-width="2.5" stroke-opacity="0.9" stroke-dasharray=""/></g></g></g><g id="labels-484a23f6"/></g></svg>