<svg version="1.1" xmlns="http://www.w3.org/2000/svg" xmlns:xlink="http://www.w3.org/1999/xlink" width="1200" height="400"><defs/><g transform="scale(2,1)"><g id="background-28d7c9f9"><rect fill="none" stroke="none" x="0" y="0" width="600" height="400" class="dcg-svg-background"/></g><g id="background-images-28d7c9f9"/><g id="graphpaper-28d7c9f9"><g id="axis-28d7c9f9"><g id="xaxis-28d7c9f9"><title>X axis</title><path fill="none" stroke="rgb(0,0,0)" class="dcg-svg-axis-line" paint-order="fill stroke markers" d=" M 0 382 L 600 382" stroke-opacity="0.9" stroke-miterlimit="10" stroke-width="1.5" stroke-dasharray=""/></g><g><g><path fill="none" stroke="rgb(0,0,0)" class="dcg-svg-tickmark" paint-order="fill stroke markers" d="" stroke-opacity="0.9" stroke-miterlimit="2" stroke-width="1.5" stroke-dasharray=""/></g></g></g></g><g id="expressions-28d7c9f9"><g id="sketch-28d7c9f9"><title>Expression 1</title><path fill="#2d70b3" stroke="none" paint-order="stroke fill markers" d="" fill-opacity="0.4"/><g><path fill="none" stroke="#2d70b3" class="dcg-svg-curve" paint-order="fill stroke markers" d=" M 0 381.8181818181818 L 0 381.8181818181818 L 131.8359375 381.6882702468349 L 142.822265625 381.3968185945936 L 150.146484375 380.95641570000316 L 155.859375 380.3657960565413 L 160.693359375 379.612146733313 L 164.794921875 378.72438384001003 L 168.45703125 377.6853435893755 L 171.826171875 376.47784997313937 L 174.90234375 375.12508265869667 L 177.83203125 373.57861948554523 L 180.615234375 371.843295303442 L 183.251953125 369.9302123809487 L 185.7421875 367.856591406899 L 188.0859375 365.6453416935341 L 190.283203125 363.32439470201007 L 192.48046875 360.74555821498507 L 194.53125 358.09052198492367 L 196.58203125 355.18157075271415 L 198.6328125 352.005070861074 L 200.537109375 348.8044446729723 L 202.44140625 345.3518956180145 L 204.345703125 341.63814324831515 L 206.25 337.6546877199844 L 208.154296875 333.3939371060454 L 209.912109375 329.2091273634155 L 211.669921875 324.7781606431653 L 213.427734375 320.0976791280446 L 215.185546875 315.1653293613806 L 216.943359375 309.979837814269 L 218.701171875 304.54108174818896 L 220.458984375 298.850154466042 L 222.216796875 292.90942407041365 L 223.974609375 286.7225848857815 L 225.87890625 279.7483557712635 L 227.783203125 272.49955652429924 L 229.6875 264.98645608073434 L 231.591796875 257.2213134047604 L 233.642578125 248.5933733000174 L 235.693359375 239.71004756531465 L 237.890625 229.9349527187394 L 240.234375 219.24968335448318 L 242.87109375 206.96150612702553 L 245.947265625 192.35296642819893 L 250.48828125 170.48644058107462 L 256.0546875 143.72602517243547 L 258.984375 129.9084236656359 L 261.474609375 118.42452816811618 L 263.671875 108.55269006842639 L 265.72265625 99.60547737568675 L 267.626953125 91.56316559639328 L 269.384765625 84.39408138513966 L 271.142578125 77.49357713311366 L 272.75390625 71.42341907303137 L 274.365234375 65.61471654104793 L 275.9765625 60.083426231938404 L 277.44140625 55.308443019976494 L 278.90625 50.78592513515815 L 280.37109375 46.525907411751746 L 281.8359375 42.53772346304328 L 283.30078125 38.82997248089265 L 284.619140625 35.73925872339055 L 285.9375 32.88721768819664 L 287.255859375 30.27848315047163 L 288.57421875 27.917146040179432 L 289.892578125 25.80674533258906 L 291.2109375 23.95026102686728 L 292.529296875 22.350109217824752 L 293.84765625 21.008139255201684 L 295.166015625 19.92563297445639 L 296.484375 19.10330597287401 L 297.802734375 18.541310895039942 L 299.12109375 18.239242682353165 L 300.439453125 18.19614573234412 L 301.7578125 18.410522905163873 L 303.076171875 18.880346306752188 L 304.39453125 19.603069770920342 L 305.712890625 20.575642955921353 L 307.03125 21.794526965055695 L 308.349609375 23.25571139549072 L 309.66796875 24.954732714778288 L 311.1328125 27.115508414811245 L 312.59765625 29.556540678598708 L 314.0625 32.26992372869341 L 315.52734375 35.24719803213736 L 316.9921875 38.479390235119695 L 318.45703125 41.95705427555305 L 320.068359375 46.054205023018824 L 321.6796875 50.42273264203425 L 323.291015625 55.04845384550424 L 325.048828125 60.37084407151292 L 326.806640625 65.96246841979001 L 328.564453125 71.80347495885945 L 330.46875 78.38928188370261 L 332.51953125 85.75289175284928 L 334.716796875 93.91857354355363 L 337.060546875 102.899574833891 L 339.697265625 113.27914466091795 L 342.7734375 125.67198920391564 L 346.728515625 141.89646162500583 L 357.275390625 185.31892154031408 L 360.64453125 198.8418016075338 L 363.57421875 210.33889576207477 L 366.2109375 220.4346020966224 L 368.701171875 229.72087954111015 L 371.19140625 238.74216945167956 L 373.53515625 246.9730507491017 L 375.87890625 254.93793880716242 L 378.076171875 262.1533308146338 L 380.2734375 269.1174929490925 L 382.470703125 275.8246948040419 L 384.66796875 282.27084542368 L 386.865234375 288.45339550521373 L 389.0625 294.3712352244411 L 391.259765625 300.0245890213228 L 393.45703125 305.4149085965789 L 395.654296875 310.54476527704367 L 397.8515625 315.4177428086481 L 400.048828125 320.0383315333937 L 402.24609375 324.4118248023231 L 404.58984375 328.8112974012697 L 406.93359375 332.94449200362493 L 409.27734375 336.8200965361527 L 411.767578125 340.66600778090276 L 414.2578125 344.2431198968257 L 416.748046875 347.5634058450744 L 419.384765625 350.81267121937094 L 422.021484375 353.80241952823394 L 424.8046875 356.69299624609914 L 427.587890625 359.3280415597641 L 430.517578125 361.8443461344475 L 433.59375 364.22307873192517 L 436.81640625 366.4488889108037 L 440.185546875 368.51012173590937 L 443.701171875 370.3989173003127 L 447.509765625 372.1746736871761 L 451.46484375 373.7550800141129 L 455.712890625 375.19106039485087 L 460.25390625 376.4679817435707 L 465.234375 377.6090452338474 L 470.80078125 378.6189185969072 L 477.099609375 379.49092298762554 L 484.27734375 380.2146987862738 L 492.7734375 380.8000529638292 L 503.173828125 381.2453161902362 L 516.943359375 381.558845872293 L 537.744140625 381.744729784668 L 581.396484375 381.81405832079065 L 600 381.81707551003734" stroke-linecap="round" stroke-linejoin="round" stroke-miterlimit="10" stroke-width="2.5" stroke-opacity="0.9" stroke-dasharray=""/></g></g><g id="sketch-28d7c9f9"><title>Expression 2</title><path fill="#388c46" stroke="none" paint-order="stroke fill markers" d="" fill-opacity="0.4"/><g><path fill="none" stroke="#388c46" class="dcg-svg-curve" paint-order="fill stroke markers" d=" M 0 381.8181780118539 L 0 381.8181780118539 L 102.83203125 381.68826582527487 L 117.919921875 381.4003242907014 L 127.880859375 380.9594364598745 L 135.498046875 380.3686767993595 L 141.796875 379.62308900651766 L 147.216796875 378.72143652027387 L 151.904296875 377.68807953817 L 156.15234375 376.4980002007947 L 160.107421875 375.12809872087627 L 163.76953125 373.5940054154165 L 167.138671875 371.9217198833384 L 170.361328125 370.0559753896618 L 173.291015625 368.1068244410432 L 176.07421875 366.0081522931751 L 178.857421875 363.64582646474963 L 181.494140625 361.1434666375716 L 183.984375 358.52530619371794 L 186.474609375 355.6419597421702 L 188.818359375 352.6704450225003 L 191.162109375 349.4343249653998 L 193.359375 346.1476280096749 L 195.556640625 342.6047407151214 L 197.75390625 338.7948659665939 L 199.8046875 334.98908896809456 L 201.85546875 330.9341184882346 L 203.90625 326.62289461578547 L 205.95703125 322.049127551948 L 208.0078125 317.20740777354007 L 210.05859375 312.0933175620278 L 212.109375 306.70354281756806 L 214.16015625 301.03598398520893 L 216.2109375 295.0898648376384 L 218.26171875 288.86583778745944 L 220.3125 282.366084343919 L 222.36328125 275.59440928628567 L 224.4140625 268.55632710047365 L 226.46484375 261.25913921870574 L 228.515625 253.71200061542854 L 230.712890625 245.3610202315361 L 232.91015625 236.75192561849616 L 235.25390625 227.30550657307842 L 237.744140625 216.99935875723511 L 240.380859375 205.82314287336027 L 243.310546875 193.14333314577988 L 246.97265625 177.01318658342666 L 258.69140625 125.15506792056749 L 261.328125 113.86285487199893 L 263.671875 104.0716482630927 L 265.869140625 95.15227781320908 L 267.919921875 87.09397195358724 L 269.82421875 79.87322504109255 L 271.58203125 73.45653963607629 L 273.33984375 67.30057293319237 L 274.951171875 61.90448560336091 L 276.5625 56.76062397852968 L 278.173828125 51.884032349994754 L 279.78515625 47.28913261524002 L 281.25 43.36796094596451 L 282.71484375 39.700718059664496 L 284.1796875 36.29661375271695 L 285.64453125 33.1642586058623 L 287.109375 30.31162771581114 L 288.57421875 27.746026877129054 L 289.892578125 25.687871056303152 L 291.2109375 23.871880691898923 L 292.529296875 22.30187395865022 L 293.84765625 20.981162379810826 L 295.166015625 19.912539188929316 L 296.484375 19.098269486424613 L 297.802734375 18.54008223951587 L 299.12109375 18.239164165052387 L 300.439453125 18.19615552553705 L 301.7578125 18.41114785918967 L 303.076171875 18.883683655311415 L 304.39453125 19.61275797656384 L 305.712890625 20.59682202011129 L 307.03125 21.833788599961395 L 308.349609375 23.321039523344382 L 309.66796875 25.05543482464185 L 310.986328125 27.0333238112828 L 312.3046875 29.250557867222085 L 313.76953125 31.989214874264178 L 315.234375 35.01060057900912 L 316.69921875 38.30700369153686 L 318.1640625 41.87006360507405 L 319.62890625 45.690805709221365 L 321.09375 49.75967902671755 L 322.705078125 54.50997667157952 L 324.31640625 59.53418119490067 L 325.927734375 64.81752227109558 L 327.685546875 70.85865655047195 L 329.443359375 77.16928541942406 L 331.34765625 84.28529126328232 L 333.251953125 91.66504593818678 L 335.302734375 99.87518533527805 L 337.5 108.93467414337903 L 339.990234375 119.47665657227412 L 342.7734375 131.52879879226055 L 346.2890625 147.02827898467135 L 357.568359375 196.97231039242368 L 360.498046875 209.57599054499045 L 363.134765625 220.66645664819407 L 365.625 230.87825736220884 L 367.96875 240.2253992228248 L 370.166015625 248.7333452753248 L 372.36328125 256.97642947559746 L 374.4140625 264.41768864499807 L 376.46484375 271.60484277740227 L 378.515625 278.5295386867309 L 380.56640625 285.18524958295785 L 382.6171875 291.56720373916306 L 384.66796875 297.6723031318959 L 386.71875 303.4990335099471 L 388.76953125 309.04736735121816 L 390.8203125 314.31866115232964 L 392.87109375 319.3155484624545 L 394.921875 324.0418300233348 L 396.97265625 328.5023623134184 L 399.0234375 332.7029457175253 L 401.07421875 336.6502134564754 L 403.271484375 340.60669711483064 L 405.46875 344.29066858367054 L 407.666015625 347.7126257913508 L 409.86328125 350.88359616225705 L 412.20703125 354.00220057212164 L 414.55078125 356.8624490987396 L 417.041015625 359.6344991793284 L 419.53125 362.1485039302282 L 422.16796875 364.54829571358084 L 424.951171875 366.8108032793597 L 427.880859375 368.91709076020396 L 430.95703125 370.8527441758645 L 434.1796875 372.60809563725815 L 437.548828125 374.17826784471583 L 441.2109375 375.6156159482914 L 445.166015625 376.8961812613621 L 449.4140625 378.0059189399853 L 454.1015625 378.96695602088147 L 459.375 379.78369973613457 L 465.52734375 380.46544433429955 L 472.8515625 381.0026121458921 L 481.93359375 381.3957503743831 L 494.384765625 381.6558921354161 L 514.892578125 381.78893607973055 L 577.294921875 381.8181265175199 L 600 381.8181780118539" stroke-linecap="round" stroke-linejoin="round" stroke-miterlimit="10" stroke-width="2.5" stroke-opacity="0.9" stroke-dasharray=""/></g></g></g><g id="labels-28d7c9f9"/></g></svg>